<?xml version="1.1" encoding="windows-1250"?>
<svg xmlns="http://www.w3.org/2000/svg"
    xmlns:latexdraw="http://latexdraw.sourceforge.net/namespaces/latexdraw"
    version="1.1" baseProfile="full">
    <g>
        <g latexdraw:type="dot" id="id595485694" latexdraw:size="10.0"
            latexdraw:dotShape="*" latexdraw:position="780.0 240.0">
            <path
                d="M 784.6153846153846 240.0 C 784.6153846153846 242.54900653768058 782.5490065376806 244.6153846153846 780.0 244.6153846153846 C 777.4509934623194 244.6153846153846 775.3846153846154 242.54900653768058 775.3846153846154 240.0 C 775.3846153846154 237.45099346231942 777.4509934623194 235.3846153846154 780.0 235.3846153846154 C 782.5490065376806 235.3846153846154 784.6153846153846 237.45099346231942 784.6153846153846 240.0 z "
                fill="black" stroke-linecap="square"
                stroke-linejoin="butt" stroke-width="0.625"
                stroke-miterlimit="10.0" stroke-dashoffset="0.0" stroke="black"/>
        </g>
        <g latexdraw:type="dot" id="id638903379" latexdraw:size="10.0"
            latexdraw:dotShape="*" latexdraw:position="720.0 140.0">
            <path
                d="M 724.6153846153846 140.0 C 724.6153846153846 142.54900653768058 722.5490065376806 144.6153846153846 720.0 144.6153846153846 C 717.4509934623194 144.6153846153846 715.3846153846154 142.54900653768058 715.3846153846154 140.0 C 715.3846153846154 137.45099346231942 717.4509934623194 135.3846153846154 720.0 135.3846153846154 C 722.5490065376806 135.3846153846154 724.6153846153846 137.45099346231942 724.6153846153846 140.0 z "
                fill="black" stroke-linecap="square"
                stroke-linejoin="butt" stroke-width="0.625"
                stroke-miterlimit="10.0" stroke-dashoffset="0.0" stroke="black"/>
        </g>
        <g latexdraw:type="dot" id="id499057178" latexdraw:size="10.0"
            latexdraw:dotShape="*" latexdraw:position="900.0 240.0">
            <path
                d="M 904.6153846153846 240.0 C 904.6153846153846 242.54900653768058 902.5490065376806 244.6153846153846 900.0 244.6153846153846 C 897.4509934623194 244.6153846153846 895.3846153846154 242.54900653768058 895.3846153846154 240.0 C 895.3846153846154 237.45099346231942 897.4509934623194 235.3846153846154 900.0 235.3846153846154 C 902.5490065376806 235.3846153846154 904.6153846153846 237.45099346231942 904.6153846153846 240.0 z "
                fill="black" stroke-linecap="square"
                stroke-linejoin="butt" stroke-width="0.625"
                stroke-miterlimit="10.0" stroke-dashoffset="0.0" stroke="black"/>
        </g>
        <g latexdraw:type="dot" id="id1690175954" latexdraw:size="10.0"
            latexdraw:dotShape="*" latexdraw:position="840.0 140.0">
            <path
                d="M 844.6153846153846 140.0 C 844.6153846153846 142.54900653768058 842.5490065376806 144.6153846153846 840.0 144.6153846153846 C 837.4509934623194 144.6153846153846 835.3846153846154 142.54900653768058 835.3846153846154 140.0 C 835.3846153846154 137.45099346231942 837.4509934623194 135.3846153846154 840.0 135.3846153846154 C 842.5490065376806 135.3846153846154 844.6153846153846 137.45099346231942 844.6153846153846 140.0 z "
                fill="black" stroke-linecap="square"
                stroke-linejoin="butt" stroke-width="0.625"
                stroke-miterlimit="10.0" stroke-dashoffset="0.0" stroke="black"/>
        </g>
        <g latexdraw:type="dot" id="id940537570" latexdraw:size="10.0"
            latexdraw:dotShape="*" latexdraw:position="840.0 340.0">
            <path
                d="M 844.6153846153846 340.0 C 844.6153846153846 342.54900653768055 842.5490065376806 344.6153846153846 840.0 344.6153846153846 C 837.4509934623194 344.6153846153846 835.3846153846154 342.54900653768055 835.3846153846154 340.0 C 835.3846153846154 337.4509934623194 837.4509934623194 335.38461538461536 840.0 335.38461538461536 C 842.5490065376806 335.38461538461536 844.6153846153846 337.4509934623194 844.6153846153846 340.0 z "
                fill="black" stroke-linecap="square"
                stroke-linejoin="butt" stroke-width="0.625"
                stroke-miterlimit="10.0" stroke-dashoffset="0.0" stroke="black"/>
        </g>
        <g latexdraw:type="dot" id="id1219758151" latexdraw:size="10.0"
            latexdraw:dotShape="*" latexdraw:position="720.0 340.0">
            <path
                d="M 724.6153846153846 340.0 C 724.6153846153846 342.54900653768055 722.5490065376806 344.6153846153846 720.0 344.6153846153846 C 717.4509934623194 344.6153846153846 715.3846153846154 342.54900653768055 715.3846153846154 340.0 C 715.3846153846154 337.4509934623194 717.4509934623194 335.38461538461536 720.0 335.38461538461536 C 722.5490065376806 335.38461538461536 724.6153846153846 337.4509934623194 724.6153846153846 340.0 z "
                fill="black" stroke-linecap="square"
                stroke-linejoin="butt" stroke-width="0.625"
                stroke-miterlimit="10.0" stroke-dashoffset="0.0" stroke="black"/>
        </g>
        <g latexdraw:type="dot" id="id2075813969" latexdraw:size="10.0"
            latexdraw:dotShape="*" latexdraw:position="660.0 240.0">
            <path
                d="M 664.6153846153846 240.0 C 664.6153846153846 242.54900653768058 662.5490065376806 244.6153846153846 660.0 244.6153846153846 C 657.4509934623194 244.6153846153846 655.3846153846154 242.54900653768058 655.3846153846154 240.0 C 655.3846153846154 237.45099346231942 657.4509934623194 235.3846153846154 660.0 235.3846153846154 C 662.5490065376806 235.3846153846154 664.6153846153846 237.45099346231942 664.6153846153846 240.0 z "
                fill="black" stroke-linecap="square"
                stroke-linejoin="butt" stroke-width="0.625"
                stroke-miterlimit="10.0" stroke-dashoffset="0.0" stroke="black"/>
        </g>
        <g latexdraw:type="dot" id="id762965542" latexdraw:size="10.0"
            latexdraw:dotShape="*" latexdraw:position="240.0 240.0">
            <path
                d="M 244.6153846153846 240.0 C 244.6153846153846 242.54900653768058 242.54900653768058 244.6153846153846 240.0 244.6153846153846 C 237.45099346231942 244.6153846153846 235.3846153846154 242.54900653768058 235.3846153846154 240.0 C 235.3846153846154 237.45099346231942 237.45099346231942 235.3846153846154 240.0 235.3846153846154 C 242.54900653768058 235.3846153846154 244.6153846153846 237.45099346231942 244.6153846153846 240.0 z "
                fill="black" stroke-linecap="square"
                stroke-linejoin="butt" stroke-width="0.625"
                stroke-miterlimit="10.0" stroke-dashoffset="0.0" stroke="black"/>
        </g>
        <g latexdraw:type="dot" id="id1518574182" latexdraw:size="10.0"
            latexdraw:dotShape="*" latexdraw:position="300.0 140.0">
            <path
                d="M 304.6153846153846 140.0 C 304.6153846153846 142.54900653768058 302.54900653768055 144.6153846153846 300.0 144.6153846153846 C 297.4509934623194 144.6153846153846 295.38461538461536 142.54900653768058 295.38461538461536 140.0 C 295.38461538461536 137.45099346231942 297.4509934623194 135.3846153846154 300.0 135.3846153846154 C 302.54900653768055 135.3846153846154 304.6153846153846 137.45099346231942 304.6153846153846 140.0 z "
                fill="black" stroke-linecap="square"
                stroke-linejoin="butt" stroke-width="0.625"
                stroke-miterlimit="10.0" stroke-dashoffset="0.0" stroke="black"/>
        </g>
        <g latexdraw:type="dot" id="id585465723" latexdraw:size="10.0"
            latexdraw:dotShape="*" latexdraw:position="360.0 240.0">
            <path
                d="M 364.6153846153846 240.0 C 364.6153846153846 242.54900653768058 362.54900653768055 244.6153846153846 360.0 244.6153846153846 C 357.4509934623194 244.6153846153846 355.38461538461536 242.54900653768058 355.38461538461536 240.0 C 355.38461538461536 237.45099346231942 357.4509934623194 235.3846153846154 360.0 235.3846153846154 C 362.54900653768055 235.3846153846154 364.6153846153846 237.45099346231942 364.6153846153846 240.0 z "
                fill="black" stroke-linecap="square"
                stroke-linejoin="butt" stroke-width="0.625"
                stroke-miterlimit="10.0" stroke-dashoffset="0.0" stroke="black"/>
        </g>
        <g latexdraw:type="dot" id="id2122880788" latexdraw:size="10.0"
            latexdraw:dotShape="*" latexdraw:position="180.0 140.0">
            <path
                d="M 184.6153846153846 140.0 C 184.6153846153846 142.54900653768058 182.54900653768058 144.6153846153846 180.0 144.6153846153846 C 177.45099346231942 144.6153846153846 175.3846153846154 142.54900653768058 175.3846153846154 140.0 C 175.3846153846154 137.45099346231942 177.45099346231942 135.3846153846154 180.0 135.3846153846154 C 182.54900653768058 135.3846153846154 184.6153846153846 137.45099346231942 184.6153846153846 140.0 z "
                fill="black" stroke-linecap="square"
                stroke-linejoin="butt" stroke-width="0.625"
                stroke-miterlimit="10.0" stroke-dashoffset="0.0" stroke="black"/>
        </g>
        <g latexdraw:type="dot" id="id1421529274" latexdraw:size="10.0"
            latexdraw:dotShape="*" latexdraw:position="120.0 240.0">
            <path
                d="M 124.61538461538461 240.0 C 124.61538461538461 242.54900653768058 122.54900653768058 244.6153846153846 120.0 244.6153846153846 C 117.45099346231942 244.6153846153846 115.38461538461539 242.54900653768058 115.38461538461539 240.0 C 115.38461538461539 237.45099346231942 117.45099346231942 235.3846153846154 120.0 235.3846153846154 C 122.54900653768058 235.3846153846154 124.61538461538461 237.45099346231942 124.61538461538461 240.0 z "
                fill="black" stroke-linecap="square"
                stroke-linejoin="butt" stroke-width="0.625"
                stroke-miterlimit="10.0" stroke-dashoffset="0.0" stroke="black"/>
        </g>
        <g latexdraw:type="dot" id="id624145424" latexdraw:size="10.0"
            latexdraw:dotShape="*" latexdraw:position="180.0 340.0">
            <path
                d="M 184.6153846153846 340.0 C 184.6153846153846 342.54900653768055 182.54900653768058 344.6153846153846 180.0 344.6153846153846 C 177.45099346231942 344.6153846153846 175.3846153846154 342.54900653768055 175.3846153846154 340.0 C 175.3846153846154 337.4509934623194 177.45099346231942 335.38461538461536 180.0 335.38461538461536 C 182.54900653768058 335.38461538461536 184.6153846153846 337.4509934623194 184.6153846153846 340.0 z "
                fill="black" stroke-linecap="square"
                stroke-linejoin="butt" stroke-width="0.625"
                stroke-miterlimit="10.0" stroke-dashoffset="0.0" stroke="black"/>
        </g>
        <g latexdraw:type="dot" id="id285461714" latexdraw:size="10.0"
            latexdraw:dotShape="*" latexdraw:position="300.0 340.0">
            <path
                d="M 304.6153846153846 340.0 C 304.6153846153846 342.54900653768055 302.54900653768055 344.6153846153846 300.0 344.6153846153846 C 297.4509934623194 344.6153846153846 295.38461538461536 342.54900653768055 295.38461538461536 340.0 C 295.38461538461536 337.4509934623194 297.4509934623194 335.38461538461536 300.0 335.38461538461536 C 302.54900653768055 335.38461538461536 304.6153846153846 337.4509934623194 304.6153846153846 340.0 z "
                fill="black" stroke-linecap="square"
                stroke-linejoin="butt" stroke-width="0.625"
                stroke-miterlimit="10.0" stroke-dashoffset="0.0" stroke="black"/>
        </g>
        <g latexdraw:type="dot" id="id901365085" latexdraw:size="10.0"
            latexdraw:dotShape="*" latexdraw:position="240.0 740.0">
            <path
                d="M 244.6153846153846 740.0 C 244.6153846153846 742.5490065376806 242.54900653768058 744.6153846153846 240.0 744.6153846153846 C 237.45099346231942 744.6153846153846 235.3846153846154 742.5490065376806 235.3846153846154 740.0 C 235.3846153846154 737.4509934623194 237.45099346231942 735.3846153846154 240.0 735.3846153846154 C 242.54900653768058 735.3846153846154 244.6153846153846 737.4509934623194 244.6153846153846 740.0 z "
                fill="black" stroke-linecap="square"
                stroke-linejoin="butt" stroke-width="0.625"
                stroke-miterlimit="10.0" stroke-dashoffset="0.0" stroke="black"/>
        </g>
        <g latexdraw:type="dot" id="id534280107" latexdraw:size="10.0"
            latexdraw:dotShape="*" latexdraw:position="300.0 640.0">
            <path
                d="M 304.6153846153846 640.0 C 304.6153846153846 642.5490065376806 302.54900653768055 644.6153846153846 300.0 644.6153846153846 C 297.4509934623194 644.6153846153846 295.38461538461536 642.5490065376806 295.38461538461536 640.0 C 295.38461538461536 637.4509934623194 297.4509934623194 635.3846153846154 300.0 635.3846153846154 C 302.54900653768055 635.3846153846154 304.6153846153846 637.4509934623194 304.6153846153846 640.0 z "
                fill="black" stroke-linecap="square"
                stroke-linejoin="butt" stroke-width="0.625"
                stroke-miterlimit="10.0" stroke-dashoffset="0.0" stroke="black"/>
        </g>
        <g latexdraw:type="dot" id="id870453640" latexdraw:size="10.0"
            latexdraw:dotShape="*" latexdraw:position="360.0 740.0">
            <path
                d="M 364.6153846153846 740.0 C 364.6153846153846 742.5490065376806 362.54900653768055 744.6153846153846 360.0 744.6153846153846 C 357.4509934623194 744.6153846153846 355.38461538461536 742.5490065376806 355.38461538461536 740.0 C 355.38461538461536 737.4509934623194 357.4509934623194 735.3846153846154 360.0 735.3846153846154 C 362.54900653768055 735.3846153846154 364.6153846153846 737.4509934623194 364.6153846153846 740.0 z "
                fill="black" stroke-linecap="square"
                stroke-linejoin="butt" stroke-width="0.625"
                stroke-miterlimit="10.0" stroke-dashoffset="0.0" stroke="black"/>
        </g>
        <g latexdraw:type="dot" id="id2113091591" latexdraw:size="10.0"
            latexdraw:dotShape="*" latexdraw:position="180.0 640.0">
            <path
                d="M 184.6153846153846 640.0 C 184.6153846153846 642.5490065376806 182.54900653768058 644.6153846153846 180.0 644.6153846153846 C 177.45099346231942 644.6153846153846 175.3846153846154 642.5490065376806 175.3846153846154 640.0 C 175.3846153846154 637.4509934623194 177.45099346231942 635.3846153846154 180.0 635.3846153846154 C 182.54900653768058 635.3846153846154 184.6153846153846 637.4509934623194 184.6153846153846 640.0 z "
                fill="black" stroke-linecap="square"
                stroke-linejoin="butt" stroke-width="0.625"
                stroke-miterlimit="10.0" stroke-dashoffset="0.0" stroke="black"/>
        </g>
        <g latexdraw:type="dot" id="id2092060982" latexdraw:size="10.0"
            latexdraw:dotShape="*" latexdraw:position="120.0 740.0">
            <path
                d="M 124.61538461538461 740.0 C 124.61538461538461 742.5490065376806 122.54900653768058 744.6153846153846 120.0 744.6153846153846 C 117.45099346231942 744.6153846153846 115.38461538461539 742.5490065376806 115.38461538461539 740.0 C 115.38461538461539 737.4509934623194 117.45099346231942 735.3846153846154 120.0 735.3846153846154 C 122.54900653768058 735.3846153846154 124.61538461538461 737.4509934623194 124.61538461538461 740.0 z "
                fill="black" stroke-linecap="square"
                stroke-linejoin="butt" stroke-width="0.625"
                stroke-miterlimit="10.0" stroke-dashoffset="0.0" stroke="black"/>
        </g>
        <g latexdraw:type="dot" id="id1793603068" latexdraw:size="10.0"
            latexdraw:dotShape="*" latexdraw:position="180.0 840.0">
            <path
                d="M 184.6153846153846 840.0 C 184.6153846153846 842.5490065376806 182.54900653768058 844.6153846153846 180.0 844.6153846153846 C 177.45099346231942 844.6153846153846 175.3846153846154 842.5490065376806 175.3846153846154 840.0 C 175.3846153846154 837.4509934623194 177.45099346231942 835.3846153846154 180.0 835.3846153846154 C 182.54900653768058 835.3846153846154 184.6153846153846 837.4509934623194 184.6153846153846 840.0 z "
                fill="black" stroke-linecap="square"
                stroke-linejoin="butt" stroke-width="0.625"
                stroke-miterlimit="10.0" stroke-dashoffset="0.0" stroke="black"/>
        </g>
        <g latexdraw:type="dot" id="id550390080" latexdraw:size="10.0"
            latexdraw:dotShape="*" latexdraw:position="300.0 840.0">
            <path
                d="M 304.6153846153846 840.0 C 304.6153846153846 842.5490065376806 302.54900653768055 844.6153846153846 300.0 844.6153846153846 C 297.4509934623194 844.6153846153846 295.38461538461536 842.5490065376806 295.38461538461536 840.0 C 295.38461538461536 837.4509934623194 297.4509934623194 835.3846153846154 300.0 835.3846153846154 C 302.54900653768055 835.3846153846154 304.6153846153846 837.4509934623194 304.6153846153846 840.0 z "
                fill="black" stroke-linecap="square"
                stroke-linejoin="butt" stroke-width="0.625"
                stroke-miterlimit="10.0" stroke-dashoffset="0.0" stroke="black"/>
        </g>
        <g latexdraw:type="dot" id="id1218666457" latexdraw:size="10.0"
            latexdraw:dotShape="*" latexdraw:position="780.0 580.0">
            <path
                d="M 784.6153846153846 580.0 C 784.6153846153846 582.5490065376806 782.5490065376806 584.6153846153846 780.0 584.6153846153846 C 777.4509934623194 584.6153846153846 775.3846153846154 582.5490065376806 775.3846153846154 580.0 C 775.3846153846154 577.4509934623194 777.4509934623194 575.3846153846154 780.0 575.3846153846154 C 782.5490065376806 575.3846153846154 784.6153846153846 577.4509934623194 784.6153846153846 580.0 z "
                fill="black" stroke-linecap="square"
                stroke-linejoin="butt" stroke-width="0.625"
                stroke-miterlimit="10.0" stroke-dashoffset="0.0" stroke="black"/>
        </g>
        <g latexdraw:type="dot" id="id2003774738" latexdraw:size="10.0"
            latexdraw:dotShape="*" latexdraw:position="840.0 480.0">
            <path
                d="M 844.6153846153846 480.0 C 844.6153846153846 482.54900653768055 842.5490065376806 484.6153846153846 840.0 484.6153846153846 C 837.4509934623194 484.6153846153846 835.3846153846154 482.54900653768055 835.3846153846154 480.0 C 835.3846153846154 477.4509934623194 837.4509934623194 475.38461538461536 840.0 475.38461538461536 C 842.5490065376806 475.38461538461536 844.6153846153846 477.4509934623194 844.6153846153846 480.0 z "
                fill="black" stroke-linecap="square"
                stroke-linejoin="butt" stroke-width="0.625"
                stroke-miterlimit="10.0" stroke-dashoffset="0.0" stroke="black"/>
        </g>
        <g latexdraw:type="dot" id="id1583072359" latexdraw:size="10.0"
            latexdraw:dotShape="*" latexdraw:position="900.0 580.0">
            <path
                d="M 904.6153846153846 580.0 C 904.6153846153846 582.5490065376806 902.5490065376806 584.6153846153846 900.0 584.6153846153846 C 897.4509934623194 584.6153846153846 895.3846153846154 582.5490065376806 895.3846153846154 580.0 C 895.3846153846154 577.4509934623194 897.4509934623194 575.3846153846154 900.0 575.3846153846154 C 902.5490065376806 575.3846153846154 904.6153846153846 577.4509934623194 904.6153846153846 580.0 z "
                fill="black" stroke-linecap="square"
                stroke-linejoin="butt" stroke-width="0.625"
                stroke-miterlimit="10.0" stroke-dashoffset="0.0" stroke="black"/>
        </g>
        <g latexdraw:type="dot" id="id1289541372" latexdraw:size="10.0"
            latexdraw:dotShape="*" latexdraw:position="720.0 480.0">
            <path
                d="M 724.6153846153846 480.0 C 724.6153846153846 482.54900653768055 722.5490065376806 484.6153846153846 720.0 484.6153846153846 C 717.4509934623194 484.6153846153846 715.3846153846154 482.54900653768055 715.3846153846154 480.0 C 715.3846153846154 477.4509934623194 717.4509934623194 475.38461538461536 720.0 475.38461538461536 C 722.5490065376806 475.38461538461536 724.6153846153846 477.4509934623194 724.6153846153846 480.0 z "
                fill="black" stroke-linecap="square"
                stroke-linejoin="butt" stroke-width="0.625"
                stroke-miterlimit="10.0" stroke-dashoffset="0.0" stroke="black"/>
        </g>
        <g latexdraw:type="dot" id="id1621195075" latexdraw:size="10.0"
            latexdraw:dotShape="*" latexdraw:position="660.0 580.0">
            <path
                d="M 664.6153846153846 580.0 C 664.6153846153846 582.5490065376806 662.5490065376806 584.6153846153846 660.0 584.6153846153846 C 657.4509934623194 584.6153846153846 655.3846153846154 582.5490065376806 655.3846153846154 580.0 C 655.3846153846154 577.4509934623194 657.4509934623194 575.3846153846154 660.0 575.3846153846154 C 662.5490065376806 575.3846153846154 664.6153846153846 577.4509934623194 664.6153846153846 580.0 z "
                fill="black" stroke-linecap="square"
                stroke-linejoin="butt" stroke-width="0.625"
                stroke-miterlimit="10.0" stroke-dashoffset="0.0" stroke="black"/>
        </g>
        <g latexdraw:type="dot" id="id603742367" latexdraw:size="10.0"
            latexdraw:dotShape="*" latexdraw:position="720.0 680.0">
            <path
                d="M 724.6153846153846 680.0 C 724.6153846153846 682.5490065376806 722.5490065376806 684.6153846153846 720.0 684.6153846153846 C 717.4509934623194 684.6153846153846 715.3846153846154 682.5490065376806 715.3846153846154 680.0 C 715.3846153846154 677.4509934623194 717.4509934623194 675.3846153846154 720.0 675.3846153846154 C 722.5490065376806 675.3846153846154 724.6153846153846 677.4509934623194 724.6153846153846 680.0 z "
                fill="black" stroke-linecap="square"
                stroke-linejoin="butt" stroke-width="0.625"
                stroke-miterlimit="10.0" stroke-dashoffset="0.0" stroke="black"/>
        </g>
        <g latexdraw:type="dot" id="id1728365032" latexdraw:size="10.0"
            latexdraw:dotShape="*" latexdraw:position="840.0 680.0">
            <path
                d="M 844.6153846153846 680.0 C 844.6153846153846 682.5490065376806 842.5490065376806 684.6153846153846 840.0 684.6153846153846 C 837.4509934623194 684.6153846153846 835.3846153846154 682.5490065376806 835.3846153846154 680.0 C 835.3846153846154 677.4509934623194 837.4509934623194 675.3846153846154 840.0 675.3846153846154 C 842.5490065376806 675.3846153846154 844.6153846153846 677.4509934623194 844.6153846153846 680.0 z "
                fill="black" stroke-linecap="square"
                stroke-linejoin="butt" stroke-width="0.625"
                stroke-miterlimit="10.0" stroke-dashoffset="0.0" stroke="black"/>
        </g>
        <g latexdraw:type="dot" id="id179564112" latexdraw:size="10.0"
            latexdraw:dotShape="*" latexdraw:position="780.0 900.0">
            <path
                d="M 784.6153846153846 900.0 C 784.6153846153846 902.5490065376806 782.5490065376806 904.6153846153846 780.0 904.6153846153846 C 777.4509934623194 904.6153846153846 775.3846153846154 902.5490065376806 775.3846153846154 900.0 C 775.3846153846154 897.4509934623194 777.4509934623194 895.3846153846154 780.0 895.3846153846154 C 782.5490065376806 895.3846153846154 784.6153846153846 897.4509934623194 784.6153846153846 900.0 z "
                fill="black" stroke-linecap="square"
                stroke-linejoin="butt" stroke-width="0.625"
                stroke-miterlimit="10.0" stroke-dashoffset="0.0" stroke="black"/>
        </g>
        <g latexdraw:type="dot" id="id240829916" latexdraw:size="10.0"
            latexdraw:dotShape="*" latexdraw:position="840.0 800.0">
            <path
                d="M 844.6153846153846 800.0 C 844.6153846153846 802.5490065376806 842.5490065376806 804.6153846153846 840.0 804.6153846153846 C 837.4509934623194 804.6153846153846 835.3846153846154 802.5490065376806 835.3846153846154 800.0 C 835.3846153846154 797.4509934623194 837.4509934623194 795.3846153846154 840.0 795.3846153846154 C 842.5490065376806 795.3846153846154 844.6153846153846 797.4509934623194 844.6153846153846 800.0 z "
                fill="black" stroke-linecap="square"
                stroke-linejoin="butt" stroke-width="0.625"
                stroke-miterlimit="10.0" stroke-dashoffset="0.0" stroke="black"/>
        </g>
        <g latexdraw:type="dot" id="id200346070" latexdraw:size="10.0"
            latexdraw:dotShape="*" latexdraw:position="900.0 900.0">
            <path
                d="M 904.6153846153846 900.0 C 904.6153846153846 902.5490065376806 902.5490065376806 904.6153846153846 900.0 904.6153846153846 C 897.4509934623194 904.6153846153846 895.3846153846154 902.5490065376806 895.3846153846154 900.0 C 895.3846153846154 897.4509934623194 897.4509934623194 895.3846153846154 900.0 895.3846153846154 C 902.5490065376806 895.3846153846154 904.6153846153846 897.4509934623194 904.6153846153846 900.0 z "
                fill="black" stroke-linecap="square"
                stroke-linejoin="butt" stroke-width="0.625"
                stroke-miterlimit="10.0" stroke-dashoffset="0.0" stroke="black"/>
        </g>
        <g latexdraw:type="dot" id="id1705582074" latexdraw:size="10.0"
            latexdraw:dotShape="*" latexdraw:position="720.0 800.0">
            <path
                d="M 724.6153846153846 800.0 C 724.6153846153846 802.5490065376806 722.5490065376806 804.6153846153846 720.0 804.6153846153846 C 717.4509934623194 804.6153846153846 715.3846153846154 802.5490065376806 715.3846153846154 800.0 C 715.3846153846154 797.4509934623194 717.4509934623194 795.3846153846154 720.0 795.3846153846154 C 722.5490065376806 795.3846153846154 724.6153846153846 797.4509934623194 724.6153846153846 800.0 z "
                fill="black" stroke-linecap="square"
                stroke-linejoin="butt" stroke-width="0.625"
                stroke-miterlimit="10.0" stroke-dashoffset="0.0" stroke="black"/>
        </g>
        <g latexdraw:type="dot" id="id1428837515" latexdraw:size="10.0"
            latexdraw:dotShape="*" latexdraw:position="660.0 900.0">
            <path
                d="M 664.6153846153846 900.0 C 664.6153846153846 902.5490065376806 662.5490065376806 904.6153846153846 660.0 904.6153846153846 C 657.4509934623194 904.6153846153846 655.3846153846154 902.5490065376806 655.3846153846154 900.0 C 655.3846153846154 897.4509934623194 657.4509934623194 895.3846153846154 660.0 895.3846153846154 C 662.5490065376806 895.3846153846154 664.6153846153846 897.4509934623194 664.6153846153846 900.0 z "
                fill="black" stroke-linecap="square"
                stroke-linejoin="butt" stroke-width="0.625"
                stroke-miterlimit="10.0" stroke-dashoffset="0.0" stroke="black"/>
        </g>
        <g latexdraw:type="dot" id="id1871631909" latexdraw:size="10.0"
            latexdraw:dotShape="*" latexdraw:position="720.0 1000.0">
            <path
                d="M 724.6153846153846 1000.0 C 724.6153846153846 1002.5490065376806 722.5490065376806 1004.6153846153846 720.0 1004.6153846153846 C 717.4509934623194 1004.6153846153846 715.3846153846154 1002.5490065376806 715.3846153846154 1000.0 C 715.3846153846154 997.4509934623194 717.4509934623194 995.3846153846154 720.0 995.3846153846154 C 722.5490065376806 995.3846153846154 724.6153846153846 997.4509934623194 724.6153846153846 1000.0 z "
                fill="black" stroke-linecap="square"
                stroke-linejoin="butt" stroke-width="0.625"
                stroke-miterlimit="10.0" stroke-dashoffset="0.0" stroke="black"/>
        </g>
        <g latexdraw:type="dot" id="id204765050" latexdraw:size="10.0"
            latexdraw:dotShape="*" latexdraw:position="840.0 1000.0">
            <path
                d="M 844.6153846153846 1000.0 C 844.6153846153846 1002.5490065376806 842.5490065376806 1004.6153846153846 840.0 1004.6153846153846 C 837.4509934623194 1004.6153846153846 835.3846153846154 1002.5490065376806 835.3846153846154 1000.0 C 835.3846153846154 997.4509934623194 837.4509934623194 995.3846153846154 840.0 995.3846153846154 C 842.5490065376806 995.3846153846154 844.6153846153846 997.4509934623194 844.6153846153846 1000.0 z "
                fill="black" stroke-linecap="square"
                stroke-linejoin="butt" stroke-width="0.625"
                stroke-miterlimit="10.0" stroke-dashoffset="0.0" stroke="black"/>
        </g>
        <g latexdraw:type="joinedLines" id="id1829146170">
            <polyline points="240.0,240.0 300.0,140.0 "
                stroke-width="3.0" stroke="#660066"
                latexdraw:rotationAngle="0.0" marker-end="url(#arrow1-1829146170)"/>
        </g>
        <g latexdraw:type="joinedLines" id="id1650636333">
            <polyline points="240.0,240.0 300.0,340.0 "
                stroke-width="3.0" stroke="#660066"
                latexdraw:rotationAngle="0.0" marker-end="url(#arrow1-1650636333)"/>
        </g>
        <g latexdraw:type="joinedLines" id="id1061401174">
            <polyline points="240.0,240.0 120.0,240.0 "
                stroke-width="3.0" stroke="#660066"
                latexdraw:rotationAngle="0.0" marker-end="url(#arrow1-1061401174)"/>
        </g>
        <g latexdraw:type="joinedLines" id="id1921995227">
            <polyline points="780.0,240.0 720.0,140.0 "
                stroke-width="3.0" stroke="#660066"
                latexdraw:rotationAngle="0.0" marker-end="url(#arrow1-1921995227)"/>
        </g>
        <g latexdraw:type="joinedLines" id="id1188660000">
            <polyline points="780.0,240.0 720.0,340.0 "
                stroke-width="3.0" stroke="#660066"
                latexdraw:rotationAngle="0.0" marker-end="url(#arrow1-1188660000)"/>
        </g>
        <g latexdraw:type="joinedLines" id="id348909681">
            <polyline points="780.0,240.0 900.0,240.0 "
                stroke-width="3.0" stroke="#660066"
                latexdraw:rotationAngle="0.0" marker-end="url(#arrow1-348909681)"/>
        </g>
        <g latexdraw:type="joinedLines" id="id329276507">
            <polyline points="420.0,220.0 600.0,220.0 "
                stroke-width="3.0" stroke="#0000cc"
                latexdraw:rotationAngle="0.0" marker-end="url(#arrow1-329276507)"/>
        </g>
        <g latexdraw:type="joinedLines" id="id1177510884">
            <polyline points="240.0,740.0 360.0,740.0 "
                stroke-width="3.0" stroke="#660066"
                latexdraw:rotationAngle="0.0" marker-end="url(#arrow1-1177510884)"/>
        </g>
        <g latexdraw:type="joinedLines" id="id155565294">
            <polyline points="240.0,740.0 120.0,740.0 "
                stroke-width="3.0" stroke="#660066"
                latexdraw:rotationAngle="0.0" marker-end="url(#arrow1-155565294)"/>
        </g>
        <g latexdraw:type="joinedLines" id="id779537041">
            <polyline points="780.0,580.0 720.0,680.0 "
                stroke-width="3.0" stroke="#660066"
                latexdraw:rotationAngle="0.0" marker-end="url(#arrow1-779537041)"/>
        </g>
        <g latexdraw:type="joinedLines" id="id1169542169">
            <polyline points="780.0,580.0 840.0,480.0 "
                stroke-width="3.0" stroke="#660066"
                latexdraw:rotationAngle="0.0" marker-end="url(#arrow1-1169542169)"/>
        </g>
        <g latexdraw:type="joinedLines" id="id1850216447">
            <polyline points="780.0,900.0 840.0,1000.0 "
                stroke-width="3.0" stroke="#660066"
                latexdraw:rotationAngle="0.0" marker-end="url(#arrow1-1850216447)"/>
        </g>
        <g latexdraw:type="joinedLines" id="id437382626">
            <polyline points="780.0,900.0 720.0,800.0 "
                stroke-width="3.0" stroke="#660066"
                latexdraw:rotationAngle="0.0" marker-end="url(#arrow1-437382626)"/>
        </g>
        <g latexdraw:type="joinedLines" id="id149530909">
            <polyline points="420.0,260.0 600.0,260.0 "
                stroke-width="3.0" stroke="#0000cc"
                latexdraw:rotationAngle="0.0" marker-start="url(#arrow0-149530909)"/>
        </g>
        <g latexdraw:type="dot" id="id1158931488" latexdraw:size="10.0"
            latexdraw:dotShape="*" latexdraw:position="240.0 1380.0">
            <path
                d="M 244.6153846153846 1380.0 C 244.6153846153846 1382.5490065376807 242.54900653768058 1384.6153846153848 240.0 1384.6153846153848 C 237.45099346231942 1384.6153846153848 235.3846153846154 1382.5490065376807 235.3846153846154 1380.0 C 235.3846153846154 1377.4509934623195 237.45099346231942 1375.3846153846155 240.0 1375.3846153846155 C 242.54900653768058 1375.3846153846155 244.6153846153846 1377.4509934623195 244.6153846153846 1380.0 z "
                fill="black" stroke-linecap="square"
                stroke-linejoin="butt" stroke-width="0.625"
                stroke-miterlimit="10.0" stroke-dashoffset="0.0" stroke="black"/>
        </g>
        <g latexdraw:type="dot" id="id949982380" latexdraw:size="10.0"
            latexdraw:dotShape="*" latexdraw:position="300.0 1280.0">
            <path
                d="M 304.6153846153846 1280.0 C 304.6153846153846 1282.5490065376807 302.54900653768055 1284.6153846153848 300.0 1284.6153846153848 C 297.4509934623194 1284.6153846153848 295.38461538461536 1282.5490065376807 295.38461538461536 1280.0 C 295.38461538461536 1277.4509934623195 297.4509934623194 1275.3846153846155 300.0 1275.3846153846155 C 302.54900653768055 1275.3846153846155 304.6153846153846 1277.4509934623195 304.6153846153846 1280.0 z "
                fill="black" stroke-linecap="square"
                stroke-linejoin="butt" stroke-width="0.625"
                stroke-miterlimit="10.0" stroke-dashoffset="0.0" stroke="black"/>
        </g>
        <g latexdraw:type="dot" id="id136171373" latexdraw:size="10.0"
            latexdraw:dotShape="*" latexdraw:position="360.0 1380.0">
            <path
                d="M 364.6153846153846 1380.0 C 364.6153846153846 1382.5490065376807 362.54900653768055 1384.6153846153848 360.0 1384.6153846153848 C 357.4509934623194 1384.6153846153848 355.38461538461536 1382.5490065376807 355.38461538461536 1380.0 C 355.38461538461536 1377.4509934623195 357.4509934623194 1375.3846153846155 360.0 1375.3846153846155 C 362.54900653768055 1375.3846153846155 364.6153846153846 1377.4509934623195 364.6153846153846 1380.0 z "
                fill="black" stroke-linecap="square"
                stroke-linejoin="butt" stroke-width="0.625"
                stroke-miterlimit="10.0" stroke-dashoffset="0.0" stroke="black"/>
        </g>
        <g latexdraw:type="dot" id="id1380399423" latexdraw:size="10.0"
            latexdraw:dotShape="*" latexdraw:position="180.0 1280.0">
            <path
                d="M 184.6153846153846 1280.0 C 184.6153846153846 1282.5490065376807 182.54900653768058 1284.6153846153848 180.0 1284.6153846153848 C 177.45099346231942 1284.6153846153848 175.3846153846154 1282.5490065376807 175.3846153846154 1280.0 C 175.3846153846154 1277.4509934623195 177.45099346231942 1275.3846153846155 180.0 1275.3846153846155 C 182.54900653768058 1275.3846153846155 184.6153846153846 1277.4509934623195 184.6153846153846 1280.0 z "
                fill="black" stroke-linecap="square"
                stroke-linejoin="butt" stroke-width="0.625"
                stroke-miterlimit="10.0" stroke-dashoffset="0.0" stroke="black"/>
        </g>
        <g latexdraw:type="dot" id="id1314367211" latexdraw:size="10.0"
            latexdraw:dotShape="*" latexdraw:position="120.0 1380.0">
            <path
                d="M 124.61538461538461 1380.0 C 124.61538461538461 1382.5490065376807 122.54900653768058 1384.6153846153848 120.0 1384.6153846153848 C 117.45099346231942 1384.6153846153848 115.38461538461539 1382.5490065376807 115.38461538461539 1380.0 C 115.38461538461539 1377.4509934623195 117.45099346231942 1375.3846153846155 120.0 1375.3846153846155 C 122.54900653768058 1375.3846153846155 124.61538461538461 1377.4509934623195 124.61538461538461 1380.0 z "
                fill="black" stroke-linecap="square"
                stroke-linejoin="butt" stroke-width="0.625"
                stroke-miterlimit="10.0" stroke-dashoffset="0.0" stroke="black"/>
        </g>
        <g latexdraw:type="dot" id="id2088702969" latexdraw:size="10.0"
            latexdraw:dotShape="*" latexdraw:position="180.0 1480.0">
            <path
                d="M 184.6153846153846 1480.0 C 184.6153846153846 1482.5490065376807 182.54900653768058 1484.6153846153848 180.0 1484.6153846153848 C 177.45099346231942 1484.6153846153848 175.3846153846154 1482.5490065376807 175.3846153846154 1480.0 C 175.3846153846154 1477.4509934623195 177.45099346231942 1475.3846153846155 180.0 1475.3846153846155 C 182.54900653768058 1475.3846153846155 184.6153846153846 1477.4509934623195 184.6153846153846 1480.0 z "
                fill="black" stroke-linecap="square"
                stroke-linejoin="butt" stroke-width="0.625"
                stroke-miterlimit="10.0" stroke-dashoffset="0.0" stroke="black"/>
        </g>
        <g latexdraw:type="dot" id="id473555719" latexdraw:size="10.0"
            latexdraw:dotShape="*" latexdraw:position="300.0 1480.0">
            <path
                d="M 304.6153846153846 1480.0 C 304.6153846153846 1482.5490065376807 302.54900653768055 1484.6153846153848 300.0 1484.6153846153848 C 297.4509934623194 1484.6153846153848 295.38461538461536 1482.5490065376807 295.38461538461536 1480.0 C 295.38461538461536 1477.4509934623195 297.4509934623194 1475.3846153846155 300.0 1475.3846153846155 C 302.54900653768055 1475.3846153846155 304.6153846153846 1477.4509934623195 304.6153846153846 1480.0 z "
                fill="black" stroke-linecap="square"
                stroke-linejoin="butt" stroke-width="0.625"
                stroke-miterlimit="10.0" stroke-dashoffset="0.0" stroke="black"/>
        </g>
        <g latexdraw:type="dot" id="id627019414" latexdraw:size="10.0"
            latexdraw:dotShape="*" latexdraw:position="780.0 1220.0">
            <path
                d="M 784.6153846153846 1220.0 C 784.6153846153846 1222.5490065376807 782.5490065376806 1224.6153846153848 780.0 1224.6153846153848 C 777.4509934623194 1224.6153846153848 775.3846153846154 1222.5490065376807 775.3846153846154 1220.0 C 775.3846153846154 1217.4509934623195 777.4509934623194 1215.3846153846155 780.0 1215.3846153846155 C 782.5490065376806 1215.3846153846155 784.6153846153846 1217.4509934623195 784.6153846153846 1220.0 z "
                fill="black" stroke-linecap="square"
                stroke-linejoin="butt" stroke-width="0.625"
                stroke-miterlimit="10.0" stroke-dashoffset="0.0" stroke="black"/>
        </g>
        <g latexdraw:type="dot" id="id282366362" latexdraw:size="10.0"
            latexdraw:dotShape="*" latexdraw:position="840.0 1120.0">
            <path
                d="M 844.6153846153846 1120.0 C 844.6153846153846 1122.5490065376807 842.5490065376806 1124.6153846153848 840.0 1124.6153846153848 C 837.4509934623194 1124.6153846153848 835.3846153846154 1122.5490065376807 835.3846153846154 1120.0 C 835.3846153846154 1117.4509934623195 837.4509934623194 1115.3846153846155 840.0 1115.3846153846155 C 842.5490065376806 1115.3846153846155 844.6153846153846 1117.4509934623195 844.6153846153846 1120.0 z "
                fill="black" stroke-linecap="square"
                stroke-linejoin="butt" stroke-width="0.625"
                stroke-miterlimit="10.0" stroke-dashoffset="0.0" stroke="black"/>
        </g>
        <g latexdraw:type="dot" id="id153429072" latexdraw:size="10.0"
            latexdraw:dotShape="*" latexdraw:position="900.0 1220.0">
            <path
                d="M 904.6153846153846 1220.0 C 904.6153846153846 1222.5490065376807 902.5490065376806 1224.6153846153848 900.0 1224.6153846153848 C 897.4509934623194 1224.6153846153848 895.3846153846154 1222.5490065376807 895.3846153846154 1220.0 C 895.3846153846154 1217.4509934623195 897.4509934623194 1215.3846153846155 900.0 1215.3846153846155 C 902.5490065376806 1215.3846153846155 904.6153846153846 1217.4509934623195 904.6153846153846 1220.0 z "
                fill="black" stroke-linecap="square"
                stroke-linejoin="butt" stroke-width="0.625"
                stroke-miterlimit="10.0" stroke-dashoffset="0.0" stroke="black"/>
        </g>
        <g latexdraw:type="dot" id="id1883322411" latexdraw:size="10.0"
            latexdraw:dotShape="*" latexdraw:position="720.0 1120.0">
            <path
                d="M 724.6153846153846 1120.0 C 724.6153846153846 1122.5490065376807 722.5490065376806 1124.6153846153848 720.0 1124.6153846153848 C 717.4509934623194 1124.6153846153848 715.3846153846154 1122.5490065376807 715.3846153846154 1120.0 C 715.3846153846154 1117.4509934623195 717.4509934623194 1115.3846153846155 720.0 1115.3846153846155 C 722.5490065376806 1115.3846153846155 724.6153846153846 1117.4509934623195 724.6153846153846 1120.0 z "
                fill="black" stroke-linecap="square"
                stroke-linejoin="butt" stroke-width="0.625"
                stroke-miterlimit="10.0" stroke-dashoffset="0.0" stroke="black"/>
        </g>
        <g latexdraw:type="dot" id="id956802346" latexdraw:size="10.0"
            latexdraw:dotShape="*" latexdraw:position="660.0 1220.0">
            <path
                d="M 664.6153846153846 1220.0 C 664.6153846153846 1222.5490065376807 662.5490065376806 1224.6153846153848 660.0 1224.6153846153848 C 657.4509934623194 1224.6153846153848 655.3846153846154 1222.5490065376807 655.3846153846154 1220.0 C 655.3846153846154 1217.4509934623195 657.4509934623194 1215.3846153846155 660.0 1215.3846153846155 C 662.5490065376806 1215.3846153846155 664.6153846153846 1217.4509934623195 664.6153846153846 1220.0 z "
                fill="black" stroke-linecap="square"
                stroke-linejoin="butt" stroke-width="0.625"
                stroke-miterlimit="10.0" stroke-dashoffset="0.0" stroke="black"/>
        </g>
        <g latexdraw:type="dot" id="id1832200108" latexdraw:size="10.0"
            latexdraw:dotShape="*" latexdraw:position="720.0 1320.0">
            <path
                d="M 724.6153846153846 1320.0 C 724.6153846153846 1322.5490065376807 722.5490065376806 1324.6153846153848 720.0 1324.6153846153848 C 717.4509934623194 1324.6153846153848 715.3846153846154 1322.5490065376807 715.3846153846154 1320.0 C 715.3846153846154 1317.4509934623195 717.4509934623194 1315.3846153846155 720.0 1315.3846153846155 C 722.5490065376806 1315.3846153846155 724.6153846153846 1317.4509934623195 724.6153846153846 1320.0 z "
                fill="black" stroke-linecap="square"
                stroke-linejoin="butt" stroke-width="0.625"
                stroke-miterlimit="10.0" stroke-dashoffset="0.0" stroke="black"/>
        </g>
        <g latexdraw:type="dot" id="id1888069102" latexdraw:size="10.0"
            latexdraw:dotShape="*" latexdraw:position="840.0 1320.0">
            <path
                d="M 844.6153846153846 1320.0 C 844.6153846153846 1322.5490065376807 842.5490065376806 1324.6153846153848 840.0 1324.6153846153848 C 837.4509934623194 1324.6153846153848 835.3846153846154 1322.5490065376807 835.3846153846154 1320.0 C 835.3846153846154 1317.4509934623195 837.4509934623194 1315.3846153846155 840.0 1315.3846153846155 C 842.5490065376806 1315.3846153846155 844.6153846153846 1317.4509934623195 844.6153846153846 1320.0 z "
                fill="black" stroke-linecap="square"
                stroke-linejoin="butt" stroke-width="0.625"
                stroke-miterlimit="10.0" stroke-dashoffset="0.0" stroke="black"/>
        </g>
        <g latexdraw:type="joinedLines" id="id1179694604">
            <polyline points="780.0,1220.0 900.0,1220.0 "
                stroke-width="3.0" stroke="#660066"
                latexdraw:rotationAngle="0.0" marker-end="url(#arrow1-1179694604)"/>
        </g>
        <g latexdraw:type="joinedLines" id="id344110627">
            <polyline points="780.0,1220.0 660.0,1220.0 "
                stroke-width="3.0" stroke="#660066"
                latexdraw:rotationAngle="0.0" marker-end="url(#arrow1-344110627)"/>
        </g>
        <g latexdraw:type="joinedLines" id="id1776475814">
            <polyline points="780.0,1220.0 720.0,1120.0 "
                stroke-width="3.0" stroke="#660066"
                latexdraw:rotationAngle="0.0" marker-end="url(#arrow1-1776475814)"/>
        </g>
        <g latexdraw:type="joinedLines" id="id3804159">
            <polyline points="780.0,1220.0 840.0,1320.0 "
                stroke-width="3.0" stroke="#660066"
                latexdraw:rotationAngle="0.0" marker-end="url(#arrow1-3804159)"/>
        </g>
        <g latexdraw:type="joinedLines" id="id551282202">
            <polyline points="240.0,1380.0 180.0,1280.0 "
                stroke-width="3.0" stroke="#660066"
                latexdraw:rotationAngle="0.0" marker-end="url(#arrow1-551282202)"/>
        </g>
        <g latexdraw:type="joinedLines" id="id1776779753">
            <polyline points="240.0,1380.0 300.0,1480.0 "
                stroke-width="3.0" stroke="#660066"
                latexdraw:rotationAngle="0.0" marker-end="url(#arrow1-1776779753)"/>
        </g>
        <g latexdraw:type="joinedLines" id="id429641703">
            <polyline points="240.0,1380.0 300.0,1280.0 "
                stroke-width="3.0" stroke="#660066"
                latexdraw:rotationAngle="0.0" marker-end="url(#arrow1-429641703)"/>
        </g>
        <g latexdraw:type="joinedLines" id="id1148549820">
            <polyline points="240.0,1380.0 180.0,1480.0 "
                stroke-width="3.0" stroke="#660066"
                latexdraw:rotationAngle="0.0" marker-end="url(#arrow1-1148549820)"/>
        </g>
        <g latexdraw:type="dot" id="id1388861040" latexdraw:size="10.0"
            latexdraw:dotShape="*" latexdraw:position="780.0 1540.0">
            <path
                d="M 784.6153846153846 1540.0 C 784.6153846153846 1542.5490065376807 782.5490065376806 1544.6153846153848 780.0 1544.6153846153848 C 777.4509934623194 1544.6153846153848 775.3846153846154 1542.5490065376807 775.3846153846154 1540.0 C 775.3846153846154 1537.4509934623195 777.4509934623194 1535.3846153846155 780.0 1535.3846153846155 C 782.5490065376806 1535.3846153846155 784.6153846153846 1537.4509934623195 784.6153846153846 1540.0 z "
                fill="black" stroke-linecap="square"
                stroke-linejoin="butt" stroke-width="0.625"
                stroke-miterlimit="10.0" stroke-dashoffset="0.0" stroke="black"/>
        </g>
        <g latexdraw:type="dot" id="id1381901654" latexdraw:size="10.0"
            latexdraw:dotShape="*" latexdraw:position="840.0 1440.0">
            <path
                d="M 844.6153846153846 1440.0 C 844.6153846153846 1442.5490065376807 842.5490065376806 1444.6153846153848 840.0 1444.6153846153848 C 837.4509934623194 1444.6153846153848 835.3846153846154 1442.5490065376807 835.3846153846154 1440.0 C 835.3846153846154 1437.4509934623195 837.4509934623194 1435.3846153846155 840.0 1435.3846153846155 C 842.5490065376806 1435.3846153846155 844.6153846153846 1437.4509934623195 844.6153846153846 1440.0 z "
                fill="black" stroke-linecap="square"
                stroke-linejoin="butt" stroke-width="0.625"
                stroke-miterlimit="10.0" stroke-dashoffset="0.0" stroke="black"/>
        </g>
        <g latexdraw:type="dot" id="id152288177" latexdraw:size="10.0"
            latexdraw:dotShape="*" latexdraw:position="900.0 1540.0">
            <path
                d="M 904.6153846153846 1540.0 C 904.6153846153846 1542.5490065376807 902.5490065376806 1544.6153846153848 900.0 1544.6153846153848 C 897.4509934623194 1544.6153846153848 895.3846153846154 1542.5490065376807 895.3846153846154 1540.0 C 895.3846153846154 1537.4509934623195 897.4509934623194 1535.3846153846155 900.0 1535.3846153846155 C 902.5490065376806 1535.3846153846155 904.6153846153846 1537.4509934623195 904.6153846153846 1540.0 z "
                fill="black" stroke-linecap="square"
                stroke-linejoin="butt" stroke-width="0.625"
                stroke-miterlimit="10.0" stroke-dashoffset="0.0" stroke="black"/>
        </g>
        <g latexdraw:type="dot" id="id335476347" latexdraw:size="10.0"
            latexdraw:dotShape="*" latexdraw:position="720.0 1440.0">
            <path
                d="M 724.6153846153846 1440.0 C 724.6153846153846 1442.5490065376807 722.5490065376806 1444.6153846153848 720.0 1444.6153846153848 C 717.4509934623194 1444.6153846153848 715.3846153846154 1442.5490065376807 715.3846153846154 1440.0 C 715.3846153846154 1437.4509934623195 717.4509934623194 1435.3846153846155 720.0 1435.3846153846155 C 722.5490065376806 1435.3846153846155 724.6153846153846 1437.4509934623195 724.6153846153846 1440.0 z "
                fill="black" stroke-linecap="square"
                stroke-linejoin="butt" stroke-width="0.625"
                stroke-miterlimit="10.0" stroke-dashoffset="0.0" stroke="black"/>
        </g>
        <g latexdraw:type="dot" id="id1588335669" latexdraw:size="10.0"
            latexdraw:dotShape="*" latexdraw:position="660.0 1540.0">
            <path
                d="M 664.6153846153846 1540.0 C 664.6153846153846 1542.5490065376807 662.5490065376806 1544.6153846153848 660.0 1544.6153846153848 C 657.4509934623194 1544.6153846153848 655.3846153846154 1542.5490065376807 655.3846153846154 1540.0 C 655.3846153846154 1537.4509934623195 657.4509934623194 1535.3846153846155 660.0 1535.3846153846155 C 662.5490065376806 1535.3846153846155 664.6153846153846 1537.4509934623195 664.6153846153846 1540.0 z "
                fill="black" stroke-linecap="square"
                stroke-linejoin="butt" stroke-width="0.625"
                stroke-miterlimit="10.0" stroke-dashoffset="0.0" stroke="black"/>
        </g>
        <g latexdraw:type="dot" id="id1121559855" latexdraw:size="10.0"
            latexdraw:dotShape="*" latexdraw:position="720.0 1640.0">
            <path
                d="M 724.6153846153846 1640.0 C 724.6153846153846 1642.5490065376807 722.5490065376806 1644.6153846153848 720.0 1644.6153846153848 C 717.4509934623194 1644.6153846153848 715.3846153846154 1642.5490065376807 715.3846153846154 1640.0 C 715.3846153846154 1637.4509934623195 717.4509934623194 1635.3846153846155 720.0 1635.3846153846155 C 722.5490065376806 1635.3846153846155 724.6153846153846 1637.4509934623195 724.6153846153846 1640.0 z "
                fill="black" stroke-linecap="square"
                stroke-linejoin="butt" stroke-width="0.625"
                stroke-miterlimit="10.0" stroke-dashoffset="0.0" stroke="black"/>
        </g>
        <g latexdraw:type="dot" id="id31904342" latexdraw:size="10.0"
            latexdraw:dotShape="*" latexdraw:position="840.0 1640.0">
            <path
                d="M 844.6153846153846 1640.0 C 844.6153846153846 1642.5490065376807 842.5490065376806 1644.6153846153848 840.0 1644.6153846153848 C 837.4509934623194 1644.6153846153848 835.3846153846154 1642.5490065376807 835.3846153846154 1640.0 C 835.3846153846154 1637.4509934623195 837.4509934623194 1635.3846153846155 840.0 1635.3846153846155 C 842.5490065376806 1635.3846153846155 844.6153846153846 1637.4509934623195 844.6153846153846 1640.0 z "
                fill="black" stroke-linecap="square"
                stroke-linejoin="butt" stroke-width="0.625"
                stroke-miterlimit="10.0" stroke-dashoffset="0.0" stroke="black"/>
        </g>
        <g latexdraw:type="joinedLines" id="id777809018">
            <polyline points="780.0,1540.0 900.0,1540.0 "
                stroke-width="3.0" stroke="#660066"
                latexdraw:rotationAngle="0.0" marker-end="url(#arrow1-777809018)"/>
        </g>
        <g latexdraw:type="joinedLines" id="id226480299">
            <polyline points="780.0,1540.0 660.0,1540.0 "
                stroke-width="3.0" stroke="#660066"
                latexdraw:rotationAngle="0.0" marker-end="url(#arrow1-226480299)"/>
        </g>
        <g latexdraw:type="joinedLines" id="id720959977">
            <polyline points="780.0,1540.0 840.0,1440.0 "
                stroke-width="3.0" stroke="#660066"
                latexdraw:rotationAngle="0.0" marker-end="url(#arrow1-720959977)"/>
        </g>
        <g latexdraw:type="joinedLines" id="id1100547266">
            <polyline points="780.0,1540.0 720.0,1640.0 "
                stroke-width="3.0" stroke="#660066"
                latexdraw:rotationAngle="0.0" marker-end="url(#arrow1-1100547266)"/>
        </g>
        <g latexdraw:type="joinedLines" id="id233561944">
            <polyline
                points="378.015854153756,626.238342162536 550.6846930859942,575.3908047414108 "
                stroke-width="3.0" stroke="#0000cc"
                latexdraw:rotationAngle="-0.2863850066806244" marker-end="url(#arrow1-233561944)"/>
        </g>
        <g latexdraw:type="joinedLines" id="id1430220324">
            <polyline
                points="389.3153069140059,664.6091952585892 561.984145846244,613.761657837464 "
                stroke-width="3.0" stroke="#0000cc"
                latexdraw:rotationAngle="-0.2863850066806244" marker-start="url(#arrow0-1430220324)"/>
        </g>
        <g latexdraw:type="joinedLines" id="id899449002">
            <polyline
                points="387.08826440845337,819.6807229579024 562.1846778125253,861.4089629523041 "
                stroke-width="3.0" stroke="#0000cc"
                latexdraw:rotationAngle="0.23395188971702346" marker-end="url(#arrow1-899449002)"/>
        </g>
        <g latexdraw:type="joinedLines" id="id105980086">
            <polyline
                points="377.8153221874751,858.5910370476959 552.9117355915471,900.3192770420976 "
                stroke-width="3.0" stroke="#0000cc"
                latexdraw:rotationAngle="0.23395188971702346" marker-start="url(#arrow0-105980086)"/>
        </g>
        <g latexdraw:type="joinedLines" id="id2047849226">
            <polyline
                points="398.0808272116847,1267.132017520435 570.2473373407606,1214.6087580064373 "
                stroke-width="3.0" stroke="#0000cc"
                latexdraw:rotationAngle="-0.29610389952106553" marker-end="url(#arrow1-2047849226)"/>
        </g>
        <g latexdraw:type="joinedLines" id="id734181689">
            <polyline
                points="409.75266265923955,1305.3912419935627 581.9191727883158,1252.867982479565 "
                stroke-width="3.0" stroke="#0000cc"
                latexdraw:rotationAngle="-0.29610389952106553" marker-start="url(#arrow0-734181689)"/>
        </g>
        <g latexdraw:type="joinedLines" id="id197641867">
            <polyline
                points="411.785029863339,1451.1899759627056 581.5260419513588,1511.0897991288455 "
                stroke-width="3.0" stroke="#0000cc"
                latexdraw:rotationAngle="0.33924667335057135" marker-end="url(#arrow1-197641867)"/>
        </g>
        <g latexdraw:type="joinedLines" id="id700773212">
            <polyline
                points="398.4739580486415,1488.9102008711545 568.2149701366609,1548.8100240372944 "
                stroke-width="3.0" stroke="#0000cc"
                latexdraw:rotationAngle="0.33924667335057135" marker-start="url(#arrow0-700773212)"/>
        </g>
        <g latexdraw:type="text" id="id264758604" fill="#660066" latexdraw:position="bl">
            <text x="435.0000000000001" y="570.0">3-particle collision</text>
        </g>
        <g latexdraw:type="text" id="id1715469021" fill="#660066" latexdraw:position="bl">
            <text x="435.0000000000001" y="1130.0">2-particle collisions</text>
        </g>
        <g latexdraw:type="text" id="id471670002" fill="#660066" latexdraw:position="bl">
            <text x="435.0000000000001" y="1770.0">4-particle collisions</text>
        </g>
    </g>
    <defs>
        <marker overflow="visible" orient="auto" id="arrow1-1829146170">
            <path
                d="M 0.0 0.0 L -9.316666666666666 1.9409722222222223 L -9.316666666666666 0.0 L -9.316666666666666 -1.9409722222222223 z "
                latexdraw:arrSizeNum="3.0" fill="#660066"/>
        </marker>
        <marker overflow="visible" orient="auto" id="arrow1-1650636333">
            <path
                d="M 0.0 0.0 L -9.316666666666666 1.9409722222222223 L -9.316666666666666 0.0 L -9.316666666666666 -1.9409722222222223 z "
                latexdraw:arrSizeNum="3.0" fill="#660066"/>
        </marker>
        <marker overflow="visible" orient="auto" id="arrow1-1061401174">
            <path
                d="M 0.0 0.0 L -9.316666666666666 1.9409722222222223 L -9.316666666666666 0.0 L -9.316666666666666 -1.9409722222222223 z "
                latexdraw:arrSizeNum="3.0" fill="#660066"/>
        </marker>
        <marker overflow="visible" orient="auto" id="arrow1-1921995227">
            <path
                d="M 0.0 0.0 L -9.316666666666666 1.9409722222222223 L -9.316666666666666 0.0 L -9.316666666666666 -1.9409722222222223 z "
                latexdraw:arrSizeNum="3.0" fill="#660066"/>
        </marker>
        <marker overflow="visible" orient="auto" id="arrow1-1188660000">
            <path
                d="M 0.0 0.0 L -9.316666666666666 1.9409722222222223 L -9.316666666666666 0.0 L -9.316666666666666 -1.9409722222222223 z "
                latexdraw:arrSizeNum="3.0" fill="#660066"/>
        </marker>
        <marker overflow="visible" orient="auto" id="arrow1-348909681">
            <path
                d="M 0.0 0.0 L -9.316666666666666 1.9409722222222223 L -9.316666666666666 0.0 L -9.316666666666666 -1.9409722222222223 z "
                latexdraw:arrSizeNum="3.0" fill="#660066"/>
        </marker>
        <marker overflow="visible" orient="auto" id="arrow1-329276507">
            <path
                d="M 0.0 0.0 L -6.916666666666667 1.4409722222222223 L -6.916666666666667 0.0 L -6.916666666666667 -1.4409722222222223 z "
                latexdraw:arrSizeNum="2.0" fill="#0000cc"/>
        </marker>
        <marker overflow="visible" orient="auto" id="arrow1-1177510884">
            <path
                d="M 0.0 0.0 L -9.316666666666666 1.9409722222222223 L -9.316666666666666 0.0 L -9.316666666666666 -1.9409722222222223 z "
                latexdraw:arrSizeNum="3.0" fill="#660066"/>
        </marker>
        <marker overflow="visible" orient="auto" id="arrow1-155565294">
            <path
                d="M 0.0 0.0 L -9.316666666666666 1.9409722222222223 L -9.316666666666666 0.0 L -9.316666666666666 -1.9409722222222223 z "
                latexdraw:arrSizeNum="3.0" fill="#660066"/>
        </marker>
        <marker overflow="visible" orient="auto" id="arrow1-779537041">
            <path
                d="M 0.0 0.0 L -9.316666666666666 1.9409722222222223 L -9.316666666666666 0.0 L -9.316666666666666 -1.9409722222222223 z "
                latexdraw:arrSizeNum="3.0" fill="#660066"/>
        </marker>
        <marker overflow="visible" orient="auto" id="arrow1-1169542169">
            <path
                d="M 0.0 0.0 L -9.316666666666666 1.9409722222222223 L -9.316666666666666 0.0 L -9.316666666666666 -1.9409722222222223 z "
                latexdraw:arrSizeNum="3.0" fill="#660066"/>
        </marker>
        <marker overflow="visible" orient="auto" id="arrow1-1850216447">
            <path
                d="M 0.0 0.0 L -9.316666666666666 1.9409722222222223 L -9.316666666666666 0.0 L -9.316666666666666 -1.9409722222222223 z "
                latexdraw:arrSizeNum="3.0" fill="#660066"/>
        </marker>
        <marker overflow="visible" orient="auto" id="arrow1-437382626">
            <path
                d="M 0.0 0.0 L -9.316666666666666 1.9409722222222223 L -9.316666666666666 0.0 L -9.316666666666666 -1.9409722222222223 z "
                latexdraw:arrSizeNum="3.0" fill="#660066"/>
        </marker>
        <marker overflow="visible" orient="auto" id="arrow0-149530909">
            <path
                d="M 0.0 0.0 L 6.916666666666667 1.4409722222222223 L 6.916666666666667 0.0 L 6.916666666666667 -1.4409722222222223 z "
                latexdraw:arrSizeNum="2.0" fill="#0000cc"/>
        </marker>
        <marker overflow="visible" orient="auto" id="arrow1-1179694604">
            <path
                d="M 0.0 0.0 L -9.316666666666666 1.9409722222222223 L -9.316666666666666 0.0 L -9.316666666666666 -1.9409722222222223 z "
                latexdraw:arrSizeNum="3.0" fill="#660066"/>
        </marker>
        <marker overflow="visible" orient="auto" id="arrow1-344110627">
            <path
                d="M 0.0 0.0 L -9.316666666666666 1.9409722222222223 L -9.316666666666666 0.0 L -9.316666666666666 -1.9409722222222223 z "
                latexdraw:arrSizeNum="3.0" fill="#660066"/>
        </marker>
        <marker overflow="visible" orient="auto" id="arrow1-1776475814">
            <path
                d="M 0.0 0.0 L -9.316666666666666 1.9409722222222223 L -9.316666666666666 0.0 L -9.316666666666666 -1.9409722222222223 z "
                latexdraw:arrSizeNum="3.0" fill="#660066"/>
        </marker>
        <marker overflow="visible" orient="auto" id="arrow1-3804159">
            <path
                d="M 0.0 0.0 L -9.316666666666666 1.9409722222222223 L -9.316666666666666 0.0 L -9.316666666666666 -1.9409722222222223 z "
                latexdraw:arrSizeNum="3.0" fill="#660066"/>
        </marker>
        <marker overflow="visible" orient="auto" id="arrow1-551282202">
            <path
                d="M 0.0 0.0 L -9.316666666666666 1.9409722222222223 L -9.316666666666666 0.0 L -9.316666666666666 -1.9409722222222223 z "
                latexdraw:arrSizeNum="3.0" fill="#660066"/>
        </marker>
        <marker overflow="visible" orient="auto" id="arrow1-1776779753">
            <path
                d="M 0.0 0.0 L -9.316666666666666 1.9409722222222223 L -9.316666666666666 0.0 L -9.316666666666666 -1.9409722222222223 z "
                latexdraw:arrSizeNum="3.0" fill="#660066"/>
        </marker>
        <marker overflow="visible" orient="auto" id="arrow1-429641703">
            <path
                d="M 0.0 0.0 L -9.316666666666666 1.9409722222222223 L -9.316666666666666 0.0 L -9.316666666666666 -1.9409722222222223 z "
                latexdraw:arrSizeNum="3.0" fill="#660066"/>
        </marker>
        <marker overflow="visible" orient="auto" id="arrow1-1148549820">
            <path
                d="M 0.0 0.0 L -9.316666666666666 1.9409722222222223 L -9.316666666666666 0.0 L -9.316666666666666 -1.9409722222222223 z "
                latexdraw:arrSizeNum="3.0" fill="#660066"/>
        </marker>
        <marker overflow="visible" orient="auto" id="arrow1-777809018">
            <path
                d="M 0.0 0.0 L -9.316666666666666 1.9409722222222223 L -9.316666666666666 0.0 L -9.316666666666666 -1.9409722222222223 z "
                latexdraw:arrSizeNum="3.0" fill="#660066"/>
        </marker>
        <marker overflow="visible" orient="auto" id="arrow1-226480299">
            <path
                d="M 0.0 0.0 L -9.316666666666666 1.9409722222222223 L -9.316666666666666 0.0 L -9.316666666666666 -1.9409722222222223 z "
                latexdraw:arrSizeNum="3.0" fill="#660066"/>
        </marker>
        <marker overflow="visible" orient="auto" id="arrow1-720959977">
            <path
                d="M 0.0 0.0 L -9.316666666666666 1.9409722222222223 L -9.316666666666666 0.0 L -9.316666666666666 -1.9409722222222223 z "
                latexdraw:arrSizeNum="3.0" fill="#660066"/>
        </marker>
        <marker overflow="visible" orient="auto" id="arrow1-1100547266">
            <path
                d="M 0.0 0.0 L -9.316666666666666 1.9409722222222223 L -9.316666666666666 0.0 L -9.316666666666666 -1.9409722222222223 z "
                latexdraw:arrSizeNum="3.0" fill="#660066"/>
        </marker>
        <marker overflow="visible" orient="auto" id="arrow1-233561944">
            <path
                d="M 0.0 0.0 L -6.916666666666667 1.4409722222222223 L -6.916666666666667 0.0 L -6.916666666666667 -1.4409722222222223 z "
                latexdraw:arrSizeNum="2.0" fill="#0000cc"/>
        </marker>
        <marker overflow="visible" orient="auto" id="arrow0-1430220324">
            <path
                d="M 0.0 0.0 L 6.916666666666667 1.4409722222222223 L 6.916666666666667 0.0 L 6.916666666666667 -1.4409722222222223 z "
                latexdraw:arrSizeNum="2.0" fill="#0000cc"/>
        </marker>
        <marker overflow="visible" orient="auto" id="arrow1-899449002">
            <path
                d="M 0.0 0.0 L -6.916666666666667 1.4409722222222223 L -6.916666666666667 0.0 L -6.916666666666667 -1.4409722222222223 z "
                latexdraw:arrSizeNum="2.0" fill="#0000cc"/>
        </marker>
        <marker overflow="visible" orient="auto" id="arrow0-105980086">
            <path
                d="M 0.0 0.0 L 6.916666666666667 1.4409722222222223 L 6.916666666666667 0.0 L 6.916666666666667 -1.4409722222222223 z "
                latexdraw:arrSizeNum="2.0" fill="#0000cc"/>
        </marker>
        <marker overflow="visible" orient="auto" id="arrow1-2047849226">
            <path
                d="M 0.0 0.0 L -6.916666666666667 1.4409722222222223 L -6.916666666666667 0.0 L -6.916666666666667 -1.4409722222222223 z "
                latexdraw:arrSizeNum="2.0" fill="#0000cc"/>
        </marker>
        <marker overflow="visible" orient="auto" id="arrow0-734181689">
            <path
                d="M 0.0 0.0 L 6.916666666666667 1.4409722222222223 L 6.916666666666667 0.0 L 6.916666666666667 -1.4409722222222223 z "
                latexdraw:arrSizeNum="2.0" fill="#0000cc"/>
        </marker>
        <marker overflow="visible" orient="auto" id="arrow1-197641867">
            <path
                d="M 0.0 0.0 L -6.916666666666667 1.4409722222222223 L -6.916666666666667 0.0 L -6.916666666666667 -1.4409722222222223 z "
                latexdraw:arrSizeNum="2.0" fill="#0000cc"/>
        </marker>
        <marker overflow="visible" orient="auto" id="arrow0-700773212">
            <path
                d="M 0.0 0.0 L 6.916666666666667 1.4409722222222223 L 6.916666666666667 0.0 L 6.916666666666667 -1.4409722222222223 z "
                latexdraw:arrSizeNum="2.0" fill="#0000cc"/>
        </marker>
    </defs>
    <metadata>
        <latexdraw:metadata>
            <latexdraw:latexIncludes/>
            <latexdraw:displayXScale>true</latexdraw:displayXScale>
            <latexdraw:displayYScale>true</latexdraw:displayYScale>
            <latexdraw:unit>CM</latexdraw:unit>
            <latexdraw:zoom>0.7999999999999998</latexdraw:zoom>
            <latexdraw:magneticGridStyle>CUSTOMISED</latexdraw:magneticGridStyle>
            <latexdraw:gridGap>20</latexdraw:gridGap>
            <latexdraw:magneticGrid>true</latexdraw:magneticGrid>
            <latexdraw:version>3.3.4</latexdraw:version>
            <latexdraw:size>
                <latexdraw:width>1554</latexdraw:width>
                <latexdraw:height>900</latexdraw:height>
            </latexdraw:size>
            <latexdraw:position>
                <latexdraw:x>54.0</latexdraw:x>
                <latexdraw:y>0.0</latexdraw:y>
            </latexdraw:position>
        </latexdraw:metadata>
    </metadata>
</svg>
