<?xml version="1.1" encoding="windows-1250"?>
<svg xmlns="http://www.w3.org/2000/svg"
    xmlns:latexdraw="http://latexdraw.sourceforge.net/namespaces/latexdraw"
    version="1.1" baseProfile="full">
    <g>
        <g latexdraw:type="dot" id="id1294181373" latexdraw:size="10.0"
            latexdraw:dotShape="*" latexdraw:position="200.0 100.0">
            <path
                d="M 204.6153846153846 100.0 C 204.6153846153846 102.54900653768058 202.54900653768058 104.61538461538461 200.0 104.61538461538461 C 197.45099346231942 104.61538461538461 195.3846153846154 102.54900653768058 195.3846153846154 100.0 C 195.3846153846154 97.45099346231942 197.45099346231942 95.38461538461539 200.0 95.38461538461539 C 202.54900653768058 95.38461538461539 204.6153846153846 97.45099346231942 204.6153846153846 100.0 z "
                fill="black" stroke-linecap="square"
                stroke-linejoin="butt" stroke-width="0.625"
                stroke-miterlimit="10.0" stroke-dashoffset="0.0" stroke="black"/>
        </g>
        <g latexdraw:type="dot" id="id2076383311" latexdraw:size="10.0"
            latexdraw:dotShape="*" latexdraw:position="300.0 100.0">
            <path
                d="M 304.6153846153846 100.0 C 304.6153846153846 102.54900653768058 302.54900653768055 104.61538461538461 300.0 104.61538461538461 C 297.4509934623194 104.61538461538461 295.38461538461536 102.54900653768058 295.38461538461536 100.0 C 295.38461538461536 97.45099346231942 297.4509934623194 95.38461538461539 300.0 95.38461538461539 C 302.54900653768055 95.38461538461539 304.6153846153846 97.45099346231942 304.6153846153846 100.0 z "
                fill="black" stroke-linecap="square"
                stroke-linejoin="butt" stroke-width="0.625"
                stroke-miterlimit="10.0" stroke-dashoffset="0.0" stroke="black"/>
        </g>
        <g latexdraw:type="dot" id="id182638176" latexdraw:size="10.0"
            latexdraw:dotShape="*" latexdraw:position="400.0 100.0">
            <path
                d="M 404.6153846153846 100.0 C 404.6153846153846 102.54900653768058 402.54900653768055 104.61538461538461 400.0 104.61538461538461 C 397.4509934623194 104.61538461538461 395.38461538461536 102.54900653768058 395.38461538461536 100.0 C 395.38461538461536 97.45099346231942 397.4509934623194 95.38461538461539 400.0 95.38461538461539 C 402.54900653768055 95.38461538461539 404.6153846153846 97.45099346231942 404.6153846153846 100.0 z "
                fill="black" stroke-linecap="square"
                stroke-linejoin="butt" stroke-width="0.625"
                stroke-miterlimit="10.0" stroke-dashoffset="0.0" stroke="black"/>
        </g>
        <g latexdraw:type="dot" id="id525853099" latexdraw:size="10.0"
            latexdraw:dotShape="*" latexdraw:position="500.0 100.0">
            <path
                d="M 504.6153846153846 100.0 C 504.6153846153846 102.54900653768058 502.54900653768055 104.61538461538461 500.0 104.61538461538461 C 497.4509934623194 104.61538461538461 495.38461538461536 102.54900653768058 495.38461538461536 100.0 C 495.38461538461536 97.45099346231942 497.4509934623194 95.38461538461539 500.0 95.38461538461539 C 502.54900653768055 95.38461538461539 504.6153846153846 97.45099346231942 504.6153846153846 100.0 z "
                fill="black" stroke-linecap="square"
                stroke-linejoin="butt" stroke-width="0.625"
                stroke-miterlimit="10.0" stroke-dashoffset="0.0" stroke="black"/>
        </g>
        <g latexdraw:type="dot" id="id117450860" latexdraw:size="10.0"
            latexdraw:dotShape="*" latexdraw:position="500.0 200.0">
            <path
                d="M 504.6153846153846 200.0 C 504.6153846153846 202.54900653768058 502.54900653768055 204.6153846153846 500.0 204.6153846153846 C 497.4509934623194 204.6153846153846 495.38461538461536 202.54900653768058 495.38461538461536 200.0 C 495.38461538461536 197.45099346231942 497.4509934623194 195.3846153846154 500.0 195.3846153846154 C 502.54900653768055 195.3846153846154 504.6153846153846 197.45099346231942 504.6153846153846 200.0 z "
                fill="black" stroke-linecap="square"
                stroke-linejoin="butt" stroke-width="0.625"
                stroke-miterlimit="10.0" stroke-dashoffset="0.0" stroke="black"/>
        </g>
        <g latexdraw:type="dot" id="id735580450" latexdraw:size="10.0"
            latexdraw:dotShape="*" latexdraw:position="400.0 200.0">
            <path
                d="M 404.6153846153846 200.0 C 404.6153846153846 202.54900653768058 402.54900653768055 204.6153846153846 400.0 204.6153846153846 C 397.4509934623194 204.6153846153846 395.38461538461536 202.54900653768058 395.38461538461536 200.0 C 395.38461538461536 197.45099346231942 397.4509934623194 195.3846153846154 400.0 195.3846153846154 C 402.54900653768055 195.3846153846154 404.6153846153846 197.45099346231942 404.6153846153846 200.0 z "
                fill="black" stroke-linecap="square"
                stroke-linejoin="butt" stroke-width="0.625"
                stroke-miterlimit="10.0" stroke-dashoffset="0.0" stroke="black"/>
        </g>
        <g latexdraw:type="dot" id="id1556776811" latexdraw:size="10.0"
            latexdraw:dotShape="*" latexdraw:position="500.0 300.0">
            <path
                d="M 504.6153846153846 300.0 C 504.6153846153846 302.54900653768055 502.54900653768055 304.6153846153846 500.0 304.6153846153846 C 497.4509934623194 304.6153846153846 495.38461538461536 302.54900653768055 495.38461538461536 300.0 C 495.38461538461536 297.4509934623194 497.4509934623194 295.38461538461536 500.0 295.38461538461536 C 502.54900653768055 295.38461538461536 504.6153846153846 297.4509934623194 504.6153846153846 300.0 z "
                fill="black" stroke-linecap="square"
                stroke-linejoin="butt" stroke-width="0.625"
                stroke-miterlimit="10.0" stroke-dashoffset="0.0" stroke="black"/>
        </g>
        <g latexdraw:type="dot" id="id2088274440" latexdraw:size="10.0"
            latexdraw:dotShape="*" latexdraw:position="400.0 300.0">
            <path
                d="M 404.6153846153846 300.0 C 404.6153846153846 302.54900653768055 402.54900653768055 304.6153846153846 400.0 304.6153846153846 C 397.4509934623194 304.6153846153846 395.38461538461536 302.54900653768055 395.38461538461536 300.0 C 395.38461538461536 297.4509934623194 397.4509934623194 295.38461538461536 400.0 295.38461538461536 C 402.54900653768055 295.38461538461536 404.6153846153846 297.4509934623194 404.6153846153846 300.0 z "
                fill="black" stroke-linecap="square"
                stroke-linejoin="butt" stroke-width="0.625"
                stroke-miterlimit="10.0" stroke-dashoffset="0.0" stroke="black"/>
        </g>
        <g latexdraw:type="dot" id="id680133635" latexdraw:size="10.0"
            latexdraw:dotShape="*" latexdraw:position="500.0 400.0">
            <path
                d="M 504.6153846153846 400.0 C 504.6153846153846 402.54900653768055 502.54900653768055 404.6153846153846 500.0 404.6153846153846 C 497.4509934623194 404.6153846153846 495.38461538461536 402.54900653768055 495.38461538461536 400.0 C 495.38461538461536 397.4509934623194 497.4509934623194 395.38461538461536 500.0 395.38461538461536 C 502.54900653768055 395.38461538461536 504.6153846153846 397.4509934623194 504.6153846153846 400.0 z "
                fill="black" stroke-linecap="square"
                stroke-linejoin="butt" stroke-width="0.625"
                stroke-miterlimit="10.0" stroke-dashoffset="0.0" stroke="black"/>
        </g>
        <g latexdraw:type="dot" id="id216065343" latexdraw:size="10.0"
            latexdraw:dotShape="*" latexdraw:position="400.0 400.0">
            <path
                d="M 404.6153846153846 400.0 C 404.6153846153846 402.54900653768055 402.54900653768055 404.6153846153846 400.0 404.6153846153846 C 397.4509934623194 404.6153846153846 395.38461538461536 402.54900653768055 395.38461538461536 400.0 C 395.38461538461536 397.4509934623194 397.4509934623194 395.38461538461536 400.0 395.38461538461536 C 402.54900653768055 395.38461538461536 404.6153846153846 397.4509934623194 404.6153846153846 400.0 z "
                fill="black" stroke-linecap="square"
                stroke-linejoin="butt" stroke-width="0.625"
                stroke-miterlimit="10.0" stroke-dashoffset="0.0" stroke="black"/>
        </g>
        <g latexdraw:type="dot" id="id914248022" latexdraw:size="10.0"
            latexdraw:dotShape="*" latexdraw:position="300.0 200.0">
            <path
                d="M 304.6153846153846 200.0 C 304.6153846153846 202.54900653768058 302.54900653768055 204.6153846153846 300.0 204.6153846153846 C 297.4509934623194 204.6153846153846 295.38461538461536 202.54900653768058 295.38461538461536 200.0 C 295.38461538461536 197.45099346231942 297.4509934623194 195.3846153846154 300.0 195.3846153846154 C 302.54900653768055 195.3846153846154 304.6153846153846 197.45099346231942 304.6153846153846 200.0 z "
                fill="black" stroke-linecap="square"
                stroke-linejoin="butt" stroke-width="0.625"
                stroke-miterlimit="10.0" stroke-dashoffset="0.0" stroke="black"/>
        </g>
        <g latexdraw:type="dot" id="id1074030444" latexdraw:size="10.0"
            latexdraw:dotShape="*" latexdraw:position="300.0 300.0">
            <path
                d="M 304.6153846153846 300.0 C 304.6153846153846 302.54900653768055 302.54900653768055 304.6153846153846 300.0 304.6153846153846 C 297.4509934623194 304.6153846153846 295.38461538461536 302.54900653768055 295.38461538461536 300.0 C 295.38461538461536 297.4509934623194 297.4509934623194 295.38461538461536 300.0 295.38461538461536 C 302.54900653768055 295.38461538461536 304.6153846153846 297.4509934623194 304.6153846153846 300.0 z "
                fill="black" stroke-linecap="square"
                stroke-linejoin="butt" stroke-width="0.625"
                stroke-miterlimit="10.0" stroke-dashoffset="0.0" stroke="black"/>
        </g>
        <g latexdraw:type="dot" id="id1660255005" latexdraw:size="10.0"
            latexdraw:dotShape="*" latexdraw:position="300.0 400.0">
            <path
                d="M 304.6153846153846 400.0 C 304.6153846153846 402.54900653768055 302.54900653768055 404.6153846153846 300.0 404.6153846153846 C 297.4509934623194 404.6153846153846 295.38461538461536 402.54900653768055 295.38461538461536 400.0 C 295.38461538461536 397.4509934623194 297.4509934623194 395.38461538461536 300.0 395.38461538461536 C 302.54900653768055 395.38461538461536 304.6153846153846 397.4509934623194 304.6153846153846 400.0 z "
                fill="black" stroke-linecap="square"
                stroke-linejoin="butt" stroke-width="0.625"
                stroke-miterlimit="10.0" stroke-dashoffset="0.0" stroke="black"/>
        </g>
        <g latexdraw:type="dot" id="id1082906680" latexdraw:size="10.0"
            latexdraw:dotShape="*" latexdraw:position="200.0 200.0">
            <path
                d="M 204.6153846153846 200.0 C 204.6153846153846 202.54900653768058 202.54900653768058 204.6153846153846 200.0 204.6153846153846 C 197.45099346231942 204.6153846153846 195.3846153846154 202.54900653768058 195.3846153846154 200.0 C 195.3846153846154 197.45099346231942 197.45099346231942 195.3846153846154 200.0 195.3846153846154 C 202.54900653768058 195.3846153846154 204.6153846153846 197.45099346231942 204.6153846153846 200.0 z "
                fill="black" stroke-linecap="square"
                stroke-linejoin="butt" stroke-width="0.625"
                stroke-miterlimit="10.0" stroke-dashoffset="0.0" stroke="black"/>
        </g>
        <g latexdraw:type="dot" id="id374943773" latexdraw:size="10.0"
            latexdraw:dotShape="*" latexdraw:position="200.0 300.0">
            <path
                d="M 204.6153846153846 300.0 C 204.6153846153846 302.54900653768055 202.54900653768058 304.6153846153846 200.0 304.6153846153846 C 197.45099346231942 304.6153846153846 195.3846153846154 302.54900653768055 195.3846153846154 300.0 C 195.3846153846154 297.4509934623194 197.45099346231942 295.38461538461536 200.0 295.38461538461536 C 202.54900653768058 295.38461538461536 204.6153846153846 297.4509934623194 204.6153846153846 300.0 z "
                fill="black" stroke-linecap="square"
                stroke-linejoin="butt" stroke-width="0.625"
                stroke-miterlimit="10.0" stroke-dashoffset="0.0" stroke="black"/>
        </g>
        <g latexdraw:type="dot" id="id1264898800" latexdraw:size="10.0"
            latexdraw:dotShape="*" latexdraw:position="200.0 400.0">
            <path
                d="M 204.6153846153846 400.0 C 204.6153846153846 402.54900653768055 202.54900653768058 404.6153846153846 200.0 404.6153846153846 C 197.45099346231942 404.6153846153846 195.3846153846154 402.54900653768055 195.3846153846154 400.0 C 195.3846153846154 397.4509934623194 197.45099346231942 395.38461538461536 200.0 395.38461538461536 C 202.54900653768058 395.38461538461536 204.6153846153846 397.4509934623194 204.6153846153846 400.0 z "
                fill="black" stroke-linecap="square"
                stroke-linejoin="butt" stroke-width="0.625"
                stroke-miterlimit="10.0" stroke-dashoffset="0.0" stroke="black"/>
        </g>
        <g latexdraw:type="joinedLines" id="id362493273">
            <polyline points="300.0,300.0 400.0,200.0 "
                stroke-width="2.0" stroke="#660066"
                latexdraw:rotationAngle="0.0" marker-end="url(#arrow1-362493273)"/>
        </g>
        <g latexdraw:type="joinedLines" id="id409112119">
            <polyline points="300.0,300.0 200.0,200.0 "
                stroke-width="2.0" stroke="#660066"
                stroke-linecap="round"
                stroke-dasharray="1, 7.291666666666667"
                latexdraw:rotationAngle="0.0" marker-end="url(#arrow1-409112119)"/>
        </g>
        <g latexdraw:type="joinedLines" id="id1639879502">
            <polyline points="300.0,300.0 400.0,400.0 "
                stroke-width="2.0" stroke="#660066"
                stroke-linecap="round"
                stroke-dasharray="1, 7.291666666666667"
                latexdraw:rotationAngle="0.0" marker-end="url(#arrow1-1639879502)"/>
        </g>
        <g latexdraw:type="joinedLines" id="id889534766">
            <polyline points="300.0,300.0 200.0,400.0 "
                stroke-width="2.0" stroke="#660066"
                stroke-linecap="round"
                stroke-dasharray="1, 7.291666666666667"
                latexdraw:rotationAngle="0.0" marker-end="url(#arrow1-889534766)"/>
        </g>
        <g latexdraw:type="joinedLines" id="id595966317">
            <polyline
                points="680.0,240.0 680.0,400.0 760.0,400.0 760.0,240.0 600.0,240.0 600.0,400.0 680.0,400.0 "
                stroke-width="2.0" stroke="black" fill="none" latexdraw:rotationAngle="0.0"/>
        </g>
        <g latexdraw:type="joinedLines" id="id1722540926">
            <polyline points="600.0,320.0 760.0,320.0 "
                stroke-width="2.0" stroke="black" latexdraw:rotationAngle="0.0"/>
        </g>
        <g latexdraw:type="polygon" id="id1445600304">
            <polygon
                points="680.0,240.0 680.0,320.0 760.0,320.0 760.0,240.0 "
                stroke-width="2.0" stroke="black" fill="yellow" latexdraw:rotationAngle="0.0"/>
        </g>
        <g latexdraw:type="dot" id="id1135647243" latexdraw:size="20.0"
            latexdraw:dotShape="*" latexdraw:position="720.0 280.0">
            <path
                d="M 729.2307692307692 280.0 C 729.2307692307692 285.09801307536117 725.0980130753611 289.2307692307692 720.0 289.2307692307692 C 714.9019869246388 289.2307692307692 710.7692307692307 285.09801307536117 710.7692307692307 280.0 C 710.7692307692307 274.90198692463883 714.9019869246388 270.7692307692308 720.0 270.7692307692308 C 725.0980130753611 270.7692307692308 729.2307692307692 274.90198692463883 729.2307692307692 280.0 z "
                fill="black" stroke-linecap="square"
                stroke-linejoin="butt" stroke-width="1.25"
                stroke-miterlimit="10.0" stroke-dashoffset="0.0" stroke="black"/>
        </g>
        <g latexdraw:type="bezierCurve" id="id1398166171">
            <path
                d="M 300.0 300.0 C 300.0 340.0 720.0 320.0 720.0 280.0 "
                stroke-width="3.0" stroke="#000099" fill="none"
                stroke-linecap="round"
                stroke-dasharray="1, 8.291666666666668"
                latexdraw:rotationAngle="0.0" marker-end="url(#arrow1-1398166171)"/>
        </g>
    </g>
    <defs>
        <marker overflow="visible" orient="auto" id="arrow1-362493273">
            <path
                d="M 0.0 0.0 L -10.375 2.1614583333333335 L -10.375 0.0 L -10.375 -2.1614583333333335 z "
                latexdraw:arrSizeNum="3.0" fill="#660066"/>
        </marker>
        <marker overflow="visible" orient="auto" id="arrow1-409112119">
            <path
                d="M 0.0 0.0 L -10.375 2.1614583333333335 L -10.375 0.0 L -10.375 -2.1614583333333335 z "
                latexdraw:arrSizeNum="3.0" fill="#660066"/>
        </marker>
        <marker overflow="visible" orient="auto" id="arrow1-1639879502">
            <path
                d="M 0.0 0.0 L -10.375 2.1614583333333335 L -10.375 0.0 L -10.375 -2.1614583333333335 z "
                latexdraw:arrSizeNum="3.0" fill="#660066"/>
        </marker>
        <marker overflow="visible" orient="auto" id="arrow1-889534766">
            <path
                d="M 0.0 0.0 L -10.375 2.1614583333333335 L -10.375 0.0 L -10.375 -2.1614583333333335 z "
                latexdraw:arrSizeNum="3.0" fill="#660066"/>
        </marker>
        <marker overflow="visible" orient="auto" id="arrow1-1398166171">
            <path
                d="M 0.0 0.0 L -9.316666666666666 1.9409722222222223 L -9.316666666666666 0.0 L -9.316666666666666 -1.9409722222222223 z "
                latexdraw:arrSizeNum="3.0" fill="#000099"/>
        </marker>
    </defs>
    <metadata>
        <latexdraw:metadata>
            <latexdraw:latexIncludes/>
            <latexdraw:displayXScale>true</latexdraw:displayXScale>
            <latexdraw:displayYScale>true</latexdraw:displayYScale>
            <latexdraw:unit>CM</latexdraw:unit>
            <latexdraw:zoom>1.0</latexdraw:zoom>
            <latexdraw:magneticGridStyle>CUSTOMISED</latexdraw:magneticGridStyle>
            <latexdraw:gridGap>20</latexdraw:gridGap>
            <latexdraw:magneticGrid>true</latexdraw:magneticGrid>
            <latexdraw:version>3.3.4</latexdraw:version>
            <latexdraw:size>
                <latexdraw:width>1551</latexdraw:width>
                <latexdraw:height>900</latexdraw:height>
            </latexdraw:size>
            <latexdraw:position>
                <latexdraw:x>55.0</latexdraw:x>
                <latexdraw:y>0.0</latexdraw:y>
            </latexdraw:position>
        </latexdraw:metadata>
    </metadata>
</svg>
