<?xml version="1.1" encoding="windows-1250"?>
<svg xmlns="http://www.w3.org/2000/svg"
    xmlns:latexdraw="http://latexdraw.sourceforge.net/namespaces/latexdraw"
    version="1.1" baseProfile="full">
    <g>
        <g latexdraw:type="polygon" id="id1988076989">
            <polygon
                points="260.0,260.0 300.0,260.0 300.0,300.0 260.0,300.0 260.0,300.0 "
                stroke-width="2.0" stroke="black" fill="black" latexdraw:rotationAngle="0.0"/>
        </g>
        <g latexdraw:type="polygon" id="id604161694">
            <polygon
                points="260.0,260.0 260.0,220.0 300.0,220.0 300.0,260.0 "
                stroke-width="2.0" stroke="black" fill="#ccffcc" latexdraw:rotationAngle="0.0"/>
        </g>
        <g latexdraw:type="polygon" id="id1857399610">
            <polygon
                points="260.0,300.0 300.0,300.0 300.0,340.0 260.0,340.0 "
                stroke-width="2.0" stroke="black" fill="#ccffcc" latexdraw:rotationAngle="0.0"/>
        </g>
        <g latexdraw:type="polygon" id="id1951021625">
            <polygon
                points="300.0,260.0 340.0,260.0 340.0,300.0 300.0,300.0 "
                stroke-width="2.0" stroke="black" fill="#ccffcc" latexdraw:rotationAngle="0.0"/>
        </g>
        <g latexdraw:type="polygon" id="id949586159">
            <polygon
                points="260.0,260.0 220.0,260.0 220.0,300.0 260.0,300.0 260.0,300.0 "
                stroke-width="2.0" stroke="black" fill="#ccffcc" latexdraw:rotationAngle="0.0"/>
        </g>
        <g latexdraw:type="polygon" id="id1699849852">
            <polygon
                points="300.0,220.0 340.0,220.0 340.0,260.0 300.0,260.0 "
                stroke-width="2.0" stroke="black" fill="#00ffcc" latexdraw:rotationAngle="0.0"/>
        </g>
        <g latexdraw:type="polygon" id="id1263736795">
            <polygon
                points="300.0,300.0 340.0,300.0 340.0,340.0 300.0,340.0 300.0,340.0 "
                stroke-width="2.0" stroke="black" fill="#00ffcc" latexdraw:rotationAngle="0.0"/>
        </g>
        <g latexdraw:type="polygon" id="id1826459428">
            <polygon
                points="260.0,300.0 220.0,300.0 220.0,340.0 260.0,340.0 "
                stroke-width="2.0" stroke="black" fill="#00ffcc" latexdraw:rotationAngle="0.0"/>
        </g>
        <g latexdraw:type="polygon" id="id1700205824">
            <polygon
                points="260.0,260.0 260.0,220.0 220.0,220.0 220.0,260.0 "
                stroke-width="2.0" stroke="black" fill="#00ffcc" latexdraw:rotationAngle="0.0"/>
        </g>
        <g latexdraw:type="polygon" id="id1063346683">
            <polygon
                points="260.0,220.0 260.0,180.0 300.0,180.0 300.0,220.0 "
                stroke-width="2.0" stroke="black" fill="#00ffcc" latexdraw:rotationAngle="0.0"/>
        </g>
        <g latexdraw:type="polygon" id="id1025155973">
            <polygon
                points="260.0,340.0 300.0,340.0 300.0,380.0 260.0,380.0 "
                stroke-width="2.0" stroke="black" fill="#00ffcc" latexdraw:rotationAngle="0.0"/>
        </g>
        <g latexdraw:type="polygon" id="id1462471059">
            <polygon
                points="340.0,260.0 380.0,260.0 380.0,300.0 340.0,300.0 "
                stroke-width="2.0" stroke="black" fill="#00ffcc" latexdraw:rotationAngle="0.0"/>
        </g>
        <g latexdraw:type="polygon" id="id727885583">
            <polygon
                points="220.0,260.0 180.0,260.0 180.0,300.0 220.0,300.0 "
                stroke-width="2.0" stroke="black" fill="#00ffcc" latexdraw:rotationAngle="0.0"/>
        </g>
        <g latexdraw:type="polygon" id="id1997268076">
            <polygon
                points="560.0,260.0 600.0,260.0 600.0,300.0 560.0,300.0 560.0,300.0 "
                stroke-width="2.0" stroke="black" fill="black" latexdraw:rotationAngle="0.0"/>
        </g>
        <g latexdraw:type="polygon" id="id576537150">
            <polygon
                points="560.0,260.0 560.0,220.0 600.0,220.0 600.0,260.0 "
                stroke-width="2.0" stroke="black" fill="#ccffcc" latexdraw:rotationAngle="0.0"/>
        </g>
        <g latexdraw:type="polygon" id="id175482639">
            <polygon
                points="560.0,300.0 600.0,300.0 600.0,340.0 560.0,340.0 "
                stroke-width="2.0" stroke="black" fill="#ccffcc" latexdraw:rotationAngle="0.0"/>
        </g>
        <g latexdraw:type="polygon" id="id1430089267">
            <polygon
                points="600.0,260.0 640.0,260.0 640.0,300.0 600.0,300.0 "
                stroke-width="2.0" stroke="black" fill="#ccffcc" latexdraw:rotationAngle="0.0"/>
        </g>
        <g latexdraw:type="polygon" id="id2018878045">
            <polygon
                points="560.0,260.0 520.0,260.0 520.0,300.0 560.0,300.0 560.0,300.0 "
                stroke-width="2.0" stroke="black" fill="#ccffcc" latexdraw:rotationAngle="0.0"/>
        </g>
        <g latexdraw:type="polygon" id="id391606509">
            <polygon
                points="480.0,220.0 520.0,220.0 520.0,260.0 480.0,260.0 "
                stroke-width="2.0" stroke="black" fill="#00ffcc" latexdraw:rotationAngle="0.0"/>
        </g>
        <g latexdraw:type="polygon" id="id1686628019">
            <polygon
                points="640.0,300.0 680.0,300.0 680.0,340.0 640.0,340.0 640.0,340.0 "
                stroke-width="2.0" stroke="black" fill="#00ffcc" latexdraw:rotationAngle="0.0"/>
        </g>
        <g latexdraw:type="polygon" id="id1327586334">
            <polygon
                points="560.0,340.0 520.0,340.0 520.0,380.0 560.0,380.0 "
                stroke-width="2.0" stroke="black" fill="#00ffcc" latexdraw:rotationAngle="0.0"/>
        </g>
        <g latexdraw:type="polygon" id="id179251156">
            <polygon
                points="640.0,220.0 640.0,180.0 600.0,180.0 600.0,220.0 "
                stroke-width="2.0" stroke="black" fill="#00ffcc" latexdraw:rotationAngle="0.0"/>
        </g>
        <g latexdraw:type="polygon" id="id1077795340">
            <polygon
                points="560.0,220.0 560.0,180.0 600.0,180.0 600.0,220.0 "
                stroke-width="2.0" stroke="black" fill="#00ffcc" latexdraw:rotationAngle="0.0"/>
        </g>
        <g latexdraw:type="polygon" id="id1442244290">
            <polygon
                points="560.0,340.0 600.0,340.0 600.0,380.0 560.0,380.0 "
                stroke-width="2.0" stroke="black" fill="#00ffcc" latexdraw:rotationAngle="0.0"/>
        </g>
        <g latexdraw:type="polygon" id="id863786523">
            <polygon
                points="640.0,260.0 680.0,260.0 680.0,300.0 640.0,300.0 "
                stroke-width="2.0" stroke="black" fill="#00ffcc" latexdraw:rotationAngle="0.0"/>
        </g>
        <g latexdraw:type="polygon" id="id1357457958">
            <polygon
                points="520.0,260.0 480.0,260.0 480.0,300.0 520.0,300.0 "
                stroke-width="2.0" stroke="black" fill="#00ffcc" latexdraw:rotationAngle="0.0"/>
        </g>
        <g latexdraw:type="polygon" id="id696271197">
            <polygon
                points="520.0,220.0 560.0,220.0 560.0,260.0 520.0,260.0 "
                stroke-width="2.0" stroke="black" fill="#ccffcc" latexdraw:rotationAngle="0.0"/>
        </g>
        <g latexdraw:type="polygon" id="id167763770">
            <polygon
                points="600.0,220.0 640.0,220.0 640.0,260.0 600.0,260.0 "
                stroke-width="2.0" stroke="black" fill="#ccffcc" latexdraw:rotationAngle="0.0"/>
        </g>
        <g latexdraw:type="polygon" id="id229052810">
            <polygon
                points="640.0,300.0 600.0,300.0 600.0,340.0 640.0,340.0 "
                stroke-width="2.0" stroke="black" fill="#ccffcc" latexdraw:rotationAngle="0.0"/>
        </g>
        <g latexdraw:type="polygon" id="id1585754235">
            <polygon
                points="520.0,300.0 560.0,300.0 560.0,340.0 520.0,340.0 "
                stroke-width="2.0" stroke="black" fill="#ccffcc" latexdraw:rotationAngle="0.0"/>
        </g>
        <g latexdraw:type="polygon" id="id661913859">
            <polygon
                points="640.0,340.0 600.0,340.0 600.0,380.0 640.0,380.0 "
                stroke-width="2.0" stroke="black" fill="#00ffcc" latexdraw:rotationAngle="0.0"/>
        </g>
        <g latexdraw:type="polygon" id="id1406081094">
            <polygon
                points="640.0,340.0 680.0,340.0 680.0,380.0 640.0,380.0 "
                stroke-width="2.0" stroke="black" fill="#00ffcc" latexdraw:rotationAngle="0.0"/>
        </g>
        <g latexdraw:type="polygon" id="id299752105">
            <polygon
                points="520.0,180.0 480.0,180.0 480.0,220.0 520.0,220.0 "
                stroke-width="2.0" stroke="black" fill="#00ffcc" latexdraw:rotationAngle="0.0"/>
        </g>
        <g latexdraw:type="polygon" id="id252331670">
            <polygon
                points="520.0,180.0 560.0,180.0 560.0,220.0 520.0,220.0 "
                stroke-width="2.0" stroke="black" fill="#00ffcc" latexdraw:rotationAngle="0.0"/>
        </g>
        <g latexdraw:type="polygon" id="id467692299">
            <polygon
                points="480.0,300.0 520.0,300.0 520.0,340.0 480.0,340.0 "
                stroke-width="2.0" stroke="black" fill="#00ffcc" latexdraw:rotationAngle="0.0"/>
        </g>
        <g latexdraw:type="polygon" id="id239704589">
            <polygon
                points="520.0,340.0 480.0,340.0 480.0,380.0 520.0,380.0 "
                stroke-width="2.0" stroke="black" fill="#00ffcc" latexdraw:rotationAngle="0.0"/>
        </g>
        <g latexdraw:type="polygon" id="id349400298">
            <polygon
                points="640.0,180.0 680.0,180.0 680.0,220.0 640.0,220.0 "
                stroke-width="2.0" stroke="black" fill="#00ffcc" latexdraw:rotationAngle="0.0"/>
        </g>
        <g latexdraw:type="polygon" id="id226767551">
            <polygon
                points="680.0,220.0 640.0,220.0 640.0,260.0 680.0,260.0 "
                stroke-width="2.0" stroke="black" fill="#00ffcc" latexdraw:rotationAngle="0.0"/>
        </g>
        <g latexdraw:type="text" id="id557890308" fill="black" latexdraw:position="bl">
            <text x="220.0" y="540.0">von Numann</text>
        </g>
        <g latexdraw:type="text" id="id539276689" fill="black" latexdraw:position="bl">
            <text x="560.0" y="540.0">Moore</text>
        </g>
    </g>
    <defs/>
    <metadata>
        <latexdraw:metadata>
            <latexdraw:latexIncludes/>
            <latexdraw:displayXScale>true</latexdraw:displayXScale>
            <latexdraw:displayYScale>true</latexdraw:displayYScale>
            <latexdraw:unit>CM</latexdraw:unit>
            <latexdraw:zoom>1.0</latexdraw:zoom>
            <latexdraw:magneticGridStyle>CUSTOMISED</latexdraw:magneticGridStyle>
            <latexdraw:gridGap>20</latexdraw:gridGap>
            <latexdraw:magneticGrid>true</latexdraw:magneticGrid>
            <latexdraw:version>3.3.4</latexdraw:version>
            <latexdraw:size>
                <latexdraw:width>1538</latexdraw:width>
                <latexdraw:height>900</latexdraw:height>
            </latexdraw:size>
            <latexdraw:position>
                <latexdraw:x>55.0</latexdraw:x>
                <latexdraw:y>0.0</latexdraw:y>
            </latexdraw:position>
        </latexdraw:metadata>
    </metadata>
</svg>
