<?xml version="1.1" encoding="windows-1250"?>
<svg xmlns="http://www.w3.org/2000/svg"
    xmlns:latexdraw="http://latexdraw.sourceforge.net/namespaces/latexdraw"
    version="1.1" baseProfile="full">
    <g>
        <g latexdraw:type="drawing" id="id1222198815">
            <g latexdraw:type="dot" id="id1328712315"
                latexdraw:size="10.0" latexdraw:dotShape="o" latexdraw:position="360.0 240.0">
                <path
                    d="M 364.72222222222223 240.0 C 364.72222222222223 242.6080113186454 362.6080113186454 244.72222222222223 360.0 244.72222222222223 C 357.3919886813546 244.72222222222223 355.27777777777777 242.6080113186454 355.27777777777777 240.0 C 355.27777777777777 237.39198868135458 357.3919886813546 235.27777777777777 360.0 235.27777777777777 C 362.6080113186454 235.27777777777777 364.72222222222223 237.39198868135458 364.72222222222223 240.0 z "
                    fill="white" stroke-linecap="square"
                    stroke-linejoin="butt" stroke-width="0.625"
                    stroke-miterlimit="10.0" stroke-dashoffset="0.0" stroke="#3333ff"/>
            </g>
            <g latexdraw:type="dot" id="id643962376"
                latexdraw:size="10.0" latexdraw:dotShape="o" latexdraw:position="400.0 240.0">
                <path
                    d="M 404.72222222222223 240.0 C 404.72222222222223 242.6080113186454 402.6080113186454 244.72222222222223 400.0 244.72222222222223 C 397.3919886813546 244.72222222222223 395.27777777777777 242.6080113186454 395.27777777777777 240.0 C 395.27777777777777 237.39198868135458 397.3919886813546 235.27777777777777 400.0 235.27777777777777 C 402.6080113186454 235.27777777777777 404.72222222222223 237.39198868135458 404.72222222222223 240.0 z "
                    fill="white" stroke-linecap="square"
                    stroke-linejoin="butt" stroke-width="0.625"
                    stroke-miterlimit="10.0" stroke-dashoffset="0.0" stroke="#3333ff"/>
            </g>
            <g latexdraw:type="dot" id="id1868410250"
                latexdraw:size="10.0" latexdraw:dotShape="o" latexdraw:position="440.0 240.0">
                <path
                    d="M 444.72222222222223 240.0 C 444.72222222222223 242.6080113186454 442.6080113186454 244.72222222222223 440.0 244.72222222222223 C 437.3919886813546 244.72222222222223 435.27777777777777 242.6080113186454 435.27777777777777 240.0 C 435.27777777777777 237.39198868135458 437.3919886813546 235.27777777777777 440.0 235.27777777777777 C 442.6080113186454 235.27777777777777 444.72222222222223 237.39198868135458 444.72222222222223 240.0 z "
                    fill="white" stroke-linecap="square"
                    stroke-linejoin="butt" stroke-width="0.625"
                    stroke-miterlimit="10.0" stroke-dashoffset="0.0" stroke="#3333ff"/>
            </g>
            <g latexdraw:type="dot" id="id1929915155"
                latexdraw:size="10.0" latexdraw:dotShape="o" latexdraw:position="480.0 240.0">
                <path
                    d="M 484.72222222222223 240.0 C 484.72222222222223 242.6080113186454 482.6080113186454 244.72222222222223 480.0 244.72222222222223 C 477.3919886813546 244.72222222222223 475.27777777777777 242.6080113186454 475.27777777777777 240.0 C 475.27777777777777 237.39198868135458 477.3919886813546 235.27777777777777 480.0 235.27777777777777 C 482.6080113186454 235.27777777777777 484.72222222222223 237.39198868135458 484.72222222222223 240.0 z "
                    fill="white" stroke-linecap="square"
                    stroke-linejoin="butt" stroke-width="0.625"
                    stroke-miterlimit="10.0" stroke-dashoffset="0.0" stroke="#3333ff"/>
            </g>
            <g latexdraw:type="dot" id="id682755675"
                latexdraw:size="10.0" latexdraw:dotShape="o" latexdraw:position="520.0 240.0">
                <path
                    d="M 524.7222222222223 240.0 C 524.7222222222223 242.6080113186454 522.6080113186455 244.72222222222223 520.0 244.72222222222223 C 517.3919886813546 244.72222222222223 515.2777777777778 242.6080113186454 515.2777777777778 240.0 C 515.2777777777778 237.39198868135458 517.3919886813546 235.27777777777777 520.0 235.27777777777777 C 522.6080113186455 235.27777777777777 524.7222222222223 237.39198868135458 524.7222222222223 240.0 z "
                    fill="white" stroke-linecap="square"
                    stroke-linejoin="butt" stroke-width="0.625"
                    stroke-miterlimit="10.0" stroke-dashoffset="0.0" stroke="#3333ff"/>
            </g>
            <g latexdraw:type="dot" id="id508987155"
                latexdraw:size="10.0" latexdraw:dotShape="o" latexdraw:position="560.0 240.0">
                <path
                    d="M 564.7222222222223 240.0 C 564.7222222222223 242.6080113186454 562.6080113186455 244.72222222222223 560.0 244.72222222222223 C 557.3919886813546 244.72222222222223 555.2777777777778 242.6080113186454 555.2777777777778 240.0 C 555.2777777777778 237.39198868135458 557.3919886813546 235.27777777777777 560.0 235.27777777777777 C 562.6080113186455 235.27777777777777 564.7222222222223 237.39198868135458 564.7222222222223 240.0 z "
                    fill="white" stroke-linecap="square"
                    stroke-linejoin="butt" stroke-width="0.625"
                    stroke-miterlimit="10.0" stroke-dashoffset="0.0" stroke="#3333ff"/>
            </g>
            <g latexdraw:type="dot" id="id484788398"
                latexdraw:size="10.0" latexdraw:dotShape="o" latexdraw:position="360.0 280.0">
                <path
                    d="M 364.72222222222223 280.0 C 364.72222222222223 282.6080113186454 362.6080113186454 284.72222222222223 360.0 284.72222222222223 C 357.3919886813546 284.72222222222223 355.27777777777777 282.6080113186454 355.27777777777777 280.0 C 355.27777777777777 277.3919886813546 357.3919886813546 275.27777777777777 360.0 275.27777777777777 C 362.6080113186454 275.27777777777777 364.72222222222223 277.3919886813546 364.72222222222223 280.0 z "
                    fill="white" stroke-linecap="square"
                    stroke-linejoin="butt" stroke-width="0.625"
                    stroke-miterlimit="10.0" stroke-dashoffset="0.0" stroke="#3333ff"/>
            </g>
            <g latexdraw:type="dot" id="id772257938"
                latexdraw:size="10.0" latexdraw:dotShape="o" latexdraw:position="400.0 280.0">
                <path
                    d="M 404.72222222222223 280.0 C 404.72222222222223 282.6080113186454 402.6080113186454 284.72222222222223 400.0 284.72222222222223 C 397.3919886813546 284.72222222222223 395.27777777777777 282.6080113186454 395.27777777777777 280.0 C 395.27777777777777 277.3919886813546 397.3919886813546 275.27777777777777 400.0 275.27777777777777 C 402.6080113186454 275.27777777777777 404.72222222222223 277.3919886813546 404.72222222222223 280.0 z "
                    fill="white" stroke-linecap="square"
                    stroke-linejoin="butt" stroke-width="0.625"
                    stroke-miterlimit="10.0" stroke-dashoffset="0.0" stroke="#3333ff"/>
            </g>
            <g latexdraw:type="dot" id="id373285847"
                latexdraw:size="10.0" latexdraw:dotShape="o" latexdraw:position="440.0 280.0">
                <path
                    d="M 444.72222222222223 280.0 C 444.72222222222223 282.6080113186454 442.6080113186454 284.72222222222223 440.0 284.72222222222223 C 437.3919886813546 284.72222222222223 435.27777777777777 282.6080113186454 435.27777777777777 280.0 C 435.27777777777777 277.3919886813546 437.3919886813546 275.27777777777777 440.0 275.27777777777777 C 442.6080113186454 275.27777777777777 444.72222222222223 277.3919886813546 444.72222222222223 280.0 z "
                    fill="white" stroke-linecap="square"
                    stroke-linejoin="butt" stroke-width="0.625"
                    stroke-miterlimit="10.0" stroke-dashoffset="0.0" stroke="#3333ff"/>
            </g>
            <g latexdraw:type="dot" id="id1023115292"
                latexdraw:size="10.0" latexdraw:dotShape="o" latexdraw:position="480.0 280.0">
                <path
                    d="M 484.72222222222223 280.0 C 484.72222222222223 282.6080113186454 482.6080113186454 284.72222222222223 480.0 284.72222222222223 C 477.3919886813546 284.72222222222223 475.27777777777777 282.6080113186454 475.27777777777777 280.0 C 475.27777777777777 277.3919886813546 477.3919886813546 275.27777777777777 480.0 275.27777777777777 C 482.6080113186454 275.27777777777777 484.72222222222223 277.3919886813546 484.72222222222223 280.0 z "
                    fill="white" stroke-linecap="square"
                    stroke-linejoin="butt" stroke-width="0.625"
                    stroke-miterlimit="10.0" stroke-dashoffset="0.0" stroke="#3333ff"/>
            </g>
            <g latexdraw:type="dot" id="id183312149"
                latexdraw:size="10.0" latexdraw:dotShape="o" latexdraw:position="520.0 280.0">
                <path
                    d="M 524.7222222222223 280.0 C 524.7222222222223 282.6080113186454 522.6080113186455 284.72222222222223 520.0 284.72222222222223 C 517.3919886813546 284.72222222222223 515.2777777777778 282.6080113186454 515.2777777777778 280.0 C 515.2777777777778 277.3919886813546 517.3919886813546 275.27777777777777 520.0 275.27777777777777 C 522.6080113186455 275.27777777777777 524.7222222222223 277.3919886813546 524.7222222222223 280.0 z "
                    fill="white" stroke-linecap="square"
                    stroke-linejoin="butt" stroke-width="0.625"
                    stroke-miterlimit="10.0" stroke-dashoffset="0.0" stroke="#3333ff"/>
            </g>
            <g latexdraw:type="dot" id="id423486962"
                latexdraw:size="10.0" latexdraw:dotShape="o" latexdraw:position="560.0 280.0">
                <path
                    d="M 564.7222222222223 280.0 C 564.7222222222223 282.6080113186454 562.6080113186455 284.72222222222223 560.0 284.72222222222223 C 557.3919886813546 284.72222222222223 555.2777777777778 282.6080113186454 555.2777777777778 280.0 C 555.2777777777778 277.3919886813546 557.3919886813546 275.27777777777777 560.0 275.27777777777777 C 562.6080113186455 275.27777777777777 564.7222222222223 277.3919886813546 564.7222222222223 280.0 z "
                    fill="white" stroke-linecap="square"
                    stroke-linejoin="butt" stroke-width="0.625"
                    stroke-miterlimit="10.0" stroke-dashoffset="0.0" stroke="#3333ff"/>
            </g>
            <g latexdraw:type="dot" id="id1886751833"
                latexdraw:size="10.0" latexdraw:dotShape="o" latexdraw:position="360.0 320.0">
                <path
                    d="M 364.72222222222223 320.0 C 364.72222222222223 322.6080113186454 362.6080113186454 324.72222222222223 360.0 324.72222222222223 C 357.3919886813546 324.72222222222223 355.27777777777777 322.6080113186454 355.27777777777777 320.0 C 355.27777777777777 317.3919886813546 357.3919886813546 315.27777777777777 360.0 315.27777777777777 C 362.6080113186454 315.27777777777777 364.72222222222223 317.3919886813546 364.72222222222223 320.0 z "
                    fill="white" stroke-linecap="square"
                    stroke-linejoin="butt" stroke-width="0.625"
                    stroke-miterlimit="10.0" stroke-dashoffset="0.0" stroke="#3333ff"/>
            </g>
            <g latexdraw:type="dot" id="id275646763"
                latexdraw:size="10.0" latexdraw:dotShape="o" latexdraw:position="400.0 320.0">
                <path
                    d="M 404.72222222222223 320.0 C 404.72222222222223 322.6080113186454 402.6080113186454 324.72222222222223 400.0 324.72222222222223 C 397.3919886813546 324.72222222222223 395.27777777777777 322.6080113186454 395.27777777777777 320.0 C 395.27777777777777 317.3919886813546 397.3919886813546 315.27777777777777 400.0 315.27777777777777 C 402.6080113186454 315.27777777777777 404.72222222222223 317.3919886813546 404.72222222222223 320.0 z "
                    fill="white" stroke-linecap="square"
                    stroke-linejoin="butt" stroke-width="0.625"
                    stroke-miterlimit="10.0" stroke-dashoffset="0.0" stroke="#3333ff"/>
            </g>
            <g latexdraw:type="dot" id="id1922673028"
                latexdraw:size="10.0" latexdraw:dotShape="o" latexdraw:position="440.0 320.0">
                <path
                    d="M 444.72222222222223 320.0 C 444.72222222222223 322.6080113186454 442.6080113186454 324.72222222222223 440.0 324.72222222222223 C 437.3919886813546 324.72222222222223 435.27777777777777 322.6080113186454 435.27777777777777 320.0 C 435.27777777777777 317.3919886813546 437.3919886813546 315.27777777777777 440.0 315.27777777777777 C 442.6080113186454 315.27777777777777 444.72222222222223 317.3919886813546 444.72222222222223 320.0 z "
                    fill="white" stroke-linecap="square"
                    stroke-linejoin="butt" stroke-width="0.625"
                    stroke-miterlimit="10.0" stroke-dashoffset="0.0" stroke="#3333ff"/>
            </g>
            <g latexdraw:type="dot" id="id83742800"
                latexdraw:size="10.0" latexdraw:dotShape="o" latexdraw:position="360.0 240.0">
                <path
                    d="M 364.72222222222223 240.0 C 364.72222222222223 242.6080113186454 362.6080113186454 244.72222222222223 360.0 244.72222222222223 C 357.3919886813546 244.72222222222223 355.27777777777777 242.6080113186454 355.27777777777777 240.0 C 355.27777777777777 237.39198868135458 357.3919886813546 235.27777777777777 360.0 235.27777777777777 C 362.6080113186454 235.27777777777777 364.72222222222223 237.39198868135458 364.72222222222223 240.0 z "
                    fill="white" stroke-linecap="square"
                    stroke-linejoin="butt" stroke-width="0.625"
                    stroke-miterlimit="10.0" stroke-dashoffset="0.0" stroke="black"/>
            </g>
            <g latexdraw:type="dot" id="id1488360402"
                latexdraw:size="10.0" latexdraw:dotShape="o" latexdraw:position="400.0 240.0">
                <path
                    d="M 404.72222222222223 240.0 C 404.72222222222223 242.6080113186454 402.6080113186454 244.72222222222223 400.0 244.72222222222223 C 397.3919886813546 244.72222222222223 395.27777777777777 242.6080113186454 395.27777777777777 240.0 C 395.27777777777777 237.39198868135458 397.3919886813546 235.27777777777777 400.0 235.27777777777777 C 402.6080113186454 235.27777777777777 404.72222222222223 237.39198868135458 404.72222222222223 240.0 z "
                    fill="white" stroke-linecap="square"
                    stroke-linejoin="butt" stroke-width="0.625"
                    stroke-miterlimit="10.0" stroke-dashoffset="0.0" stroke="black"/>
            </g>
            <g latexdraw:type="dot" id="id955383486"
                latexdraw:size="10.0" latexdraw:dotShape="o" latexdraw:position="440.0 240.0">
                <path
                    d="M 444.72222222222223 240.0 C 444.72222222222223 242.6080113186454 442.6080113186454 244.72222222222223 440.0 244.72222222222223 C 437.3919886813546 244.72222222222223 435.27777777777777 242.6080113186454 435.27777777777777 240.0 C 435.27777777777777 237.39198868135458 437.3919886813546 235.27777777777777 440.0 235.27777777777777 C 442.6080113186454 235.27777777777777 444.72222222222223 237.39198868135458 444.72222222222223 240.0 z "
                    fill="white" stroke-linecap="square"
                    stroke-linejoin="butt" stroke-width="0.625"
                    stroke-miterlimit="10.0" stroke-dashoffset="0.0" stroke="black"/>
            </g>
            <g latexdraw:type="dot" id="id119256493"
                latexdraw:size="10.0" latexdraw:dotShape="o" latexdraw:position="480.0 240.0">
                <path
                    d="M 484.72222222222223 240.0 C 484.72222222222223 242.6080113186454 482.6080113186454 244.72222222222223 480.0 244.72222222222223 C 477.3919886813546 244.72222222222223 475.27777777777777 242.6080113186454 475.27777777777777 240.0 C 475.27777777777777 237.39198868135458 477.3919886813546 235.27777777777777 480.0 235.27777777777777 C 482.6080113186454 235.27777777777777 484.72222222222223 237.39198868135458 484.72222222222223 240.0 z "
                    fill="white" stroke-linecap="square"
                    stroke-linejoin="butt" stroke-width="0.625"
                    stroke-miterlimit="10.0" stroke-dashoffset="0.0" stroke="black"/>
            </g>
            <g latexdraw:type="dot" id="id1829669454"
                latexdraw:size="10.0" latexdraw:dotShape="o" latexdraw:position="520.0 240.0">
                <path
                    d="M 524.7222222222223 240.0 C 524.7222222222223 242.6080113186454 522.6080113186455 244.72222222222223 520.0 244.72222222222223 C 517.3919886813546 244.72222222222223 515.2777777777778 242.6080113186454 515.2777777777778 240.0 C 515.2777777777778 237.39198868135458 517.3919886813546 235.27777777777777 520.0 235.27777777777777 C 522.6080113186455 235.27777777777777 524.7222222222223 237.39198868135458 524.7222222222223 240.0 z "
                    fill="white" stroke-linecap="square"
                    stroke-linejoin="butt" stroke-width="0.625"
                    stroke-miterlimit="10.0" stroke-dashoffset="0.0" stroke="black"/>
            </g>
            <g latexdraw:type="dot" id="id21675070"
                latexdraw:size="10.0" latexdraw:dotShape="o" latexdraw:position="560.0 240.0">
                <path
                    d="M 564.7222222222223 240.0 C 564.7222222222223 242.6080113186454 562.6080113186455 244.72222222222223 560.0 244.72222222222223 C 557.3919886813546 244.72222222222223 555.2777777777778 242.6080113186454 555.2777777777778 240.0 C 555.2777777777778 237.39198868135458 557.3919886813546 235.27777777777777 560.0 235.27777777777777 C 562.6080113186455 235.27777777777777 564.7222222222223 237.39198868135458 564.7222222222223 240.0 z "
                    fill="white" stroke-linecap="square"
                    stroke-linejoin="butt" stroke-width="0.625"
                    stroke-miterlimit="10.0" stroke-dashoffset="0.0" stroke="black"/>
            </g>
            <g latexdraw:type="dot" id="id913942183"
                latexdraw:size="10.0" latexdraw:dotShape="o" latexdraw:position="560.0 280.0">
                <path
                    d="M 564.7222222222223 280.0 C 564.7222222222223 282.6080113186454 562.6080113186455 284.72222222222223 560.0 284.72222222222223 C 557.3919886813546 284.72222222222223 555.2777777777778 282.6080113186454 555.2777777777778 280.0 C 555.2777777777778 277.3919886813546 557.3919886813546 275.27777777777777 560.0 275.27777777777777 C 562.6080113186455 275.27777777777777 564.7222222222223 277.3919886813546 564.7222222222223 280.0 z "
                    fill="white" stroke-linecap="square"
                    stroke-linejoin="butt" stroke-width="0.625"
                    stroke-miterlimit="10.0" stroke-dashoffset="0.0" stroke="black"/>
            </g>
            <g latexdraw:type="dot" id="id1821760280"
                latexdraw:size="10.0" latexdraw:dotShape="o" latexdraw:position="520.0 280.0">
                <path
                    d="M 524.7222222222223 280.0 C 524.7222222222223 282.6080113186454 522.6080113186455 284.72222222222223 520.0 284.72222222222223 C 517.3919886813546 284.72222222222223 515.2777777777778 282.6080113186454 515.2777777777778 280.0 C 515.2777777777778 277.3919886813546 517.3919886813546 275.27777777777777 520.0 275.27777777777777 C 522.6080113186455 275.27777777777777 524.7222222222223 277.3919886813546 524.7222222222223 280.0 z "
                    fill="white" stroke-linecap="square"
                    stroke-linejoin="butt" stroke-width="0.625"
                    stroke-miterlimit="10.0" stroke-dashoffset="0.0" stroke="black"/>
            </g>
            <g latexdraw:type="dot" id="id1968201790"
                latexdraw:size="10.0" latexdraw:dotShape="o" latexdraw:position="480.0 280.0">
                <path
                    d="M 484.72222222222223 280.0 C 484.72222222222223 282.6080113186454 482.6080113186454 284.72222222222223 480.0 284.72222222222223 C 477.3919886813546 284.72222222222223 475.27777777777777 282.6080113186454 475.27777777777777 280.0 C 475.27777777777777 277.3919886813546 477.3919886813546 275.27777777777777 480.0 275.27777777777777 C 482.6080113186454 275.27777777777777 484.72222222222223 277.3919886813546 484.72222222222223 280.0 z "
                    fill="white" stroke-linecap="square"
                    stroke-linejoin="butt" stroke-width="0.625"
                    stroke-miterlimit="10.0" stroke-dashoffset="0.0" stroke="black"/>
            </g>
            <g latexdraw:type="dot" id="id556763622"
                latexdraw:size="10.0" latexdraw:dotShape="o" latexdraw:position="440.0 280.0">
                <path
                    d="M 444.72222222222223 280.0 C 444.72222222222223 282.6080113186454 442.6080113186454 284.72222222222223 440.0 284.72222222222223 C 437.3919886813546 284.72222222222223 435.27777777777777 282.6080113186454 435.27777777777777 280.0 C 435.27777777777777 277.3919886813546 437.3919886813546 275.27777777777777 440.0 275.27777777777777 C 442.6080113186454 275.27777777777777 444.72222222222223 277.3919886813546 444.72222222222223 280.0 z "
                    fill="white" stroke-linecap="square"
                    stroke-linejoin="butt" stroke-width="0.625"
                    stroke-miterlimit="10.0" stroke-dashoffset="0.0" stroke="black"/>
            </g>
            <g latexdraw:type="dot" id="id1511542778"
                latexdraw:size="10.0" latexdraw:dotShape="o" latexdraw:position="400.0 280.0">
                <path
                    d="M 404.72222222222223 280.0 C 404.72222222222223 282.6080113186454 402.6080113186454 284.72222222222223 400.0 284.72222222222223 C 397.3919886813546 284.72222222222223 395.27777777777777 282.6080113186454 395.27777777777777 280.0 C 395.27777777777777 277.3919886813546 397.3919886813546 275.27777777777777 400.0 275.27777777777777 C 402.6080113186454 275.27777777777777 404.72222222222223 277.3919886813546 404.72222222222223 280.0 z "
                    fill="white" stroke-linecap="square"
                    stroke-linejoin="butt" stroke-width="0.625"
                    stroke-miterlimit="10.0" stroke-dashoffset="0.0" stroke="black"/>
            </g>
            <g latexdraw:type="dot" id="id404161210"
                latexdraw:size="10.0" latexdraw:dotShape="o" latexdraw:position="360.0 280.0">
                <path
                    d="M 364.72222222222223 280.0 C 364.72222222222223 282.6080113186454 362.6080113186454 284.72222222222223 360.0 284.72222222222223 C 357.3919886813546 284.72222222222223 355.27777777777777 282.6080113186454 355.27777777777777 280.0 C 355.27777777777777 277.3919886813546 357.3919886813546 275.27777777777777 360.0 275.27777777777777 C 362.6080113186454 275.27777777777777 364.72222222222223 277.3919886813546 364.72222222222223 280.0 z "
                    fill="white" stroke-linecap="square"
                    stroke-linejoin="butt" stroke-width="0.625"
                    stroke-miterlimit="10.0" stroke-dashoffset="0.0" stroke="black"/>
            </g>
            <g latexdraw:type="dot" id="id1857081366"
                latexdraw:size="10.0" latexdraw:dotShape="o" latexdraw:position="360.0 320.0">
                <path
                    d="M 364.72222222222223 320.0 C 364.72222222222223 322.6080113186454 362.6080113186454 324.72222222222223 360.0 324.72222222222223 C 357.3919886813546 324.72222222222223 355.27777777777777 322.6080113186454 355.27777777777777 320.0 C 355.27777777777777 317.3919886813546 357.3919886813546 315.27777777777777 360.0 315.27777777777777 C 362.6080113186454 315.27777777777777 364.72222222222223 317.3919886813546 364.72222222222223 320.0 z "
                    fill="white" stroke-linecap="square"
                    stroke-linejoin="butt" stroke-width="0.625"
                    stroke-miterlimit="10.0" stroke-dashoffset="0.0" stroke="black"/>
            </g>
            <g latexdraw:type="dot" id="id856491167"
                latexdraw:size="10.0" latexdraw:dotShape="o" latexdraw:position="400.0 320.0">
                <path
                    d="M 404.72222222222223 320.0 C 404.72222222222223 322.6080113186454 402.6080113186454 324.72222222222223 400.0 324.72222222222223 C 397.3919886813546 324.72222222222223 395.27777777777777 322.6080113186454 395.27777777777777 320.0 C 395.27777777777777 317.3919886813546 397.3919886813546 315.27777777777777 400.0 315.27777777777777 C 402.6080113186454 315.27777777777777 404.72222222222223 317.3919886813546 404.72222222222223 320.0 z "
                    fill="white" stroke-linecap="square"
                    stroke-linejoin="butt" stroke-width="0.625"
                    stroke-miterlimit="10.0" stroke-dashoffset="0.0" stroke="black"/>
            </g>
            <g latexdraw:type="dot" id="id728951451"
                latexdraw:size="10.0" latexdraw:dotShape="o" latexdraw:position="440.0 320.0">
                <path
                    d="M 444.72222222222223 320.0 C 444.72222222222223 322.6080113186454 442.6080113186454 324.72222222222223 440.0 324.72222222222223 C 437.3919886813546 324.72222222222223 435.27777777777777 322.6080113186454 435.27777777777777 320.0 C 435.27777777777777 317.3919886813546 437.3919886813546 315.27777777777777 440.0 315.27777777777777 C 442.6080113186454 315.27777777777777 444.72222222222223 317.3919886813546 444.72222222222223 320.0 z "
                    fill="white" stroke-linecap="square"
                    stroke-linejoin="butt" stroke-width="0.625"
                    stroke-miterlimit="10.0" stroke-dashoffset="0.0" stroke="black"/>
            </g>
            <g latexdraw:type="dot" id="id189804445"
                latexdraw:size="10.0" latexdraw:dotShape="o" latexdraw:position="480.0 320.0">
                <path
                    d="M 484.72222222222223 320.0 C 484.72222222222223 322.6080113186454 482.6080113186454 324.72222222222223 480.0 324.72222222222223 C 477.3919886813546 324.72222222222223 475.27777777777777 322.6080113186454 475.27777777777777 320.0 C 475.27777777777777 317.3919886813546 477.3919886813546 315.27777777777777 480.0 315.27777777777777 C 482.6080113186454 315.27777777777777 484.72222222222223 317.3919886813546 484.72222222222223 320.0 z "
                    fill="white" stroke-linecap="square"
                    stroke-linejoin="butt" stroke-width="0.625"
                    stroke-miterlimit="10.0" stroke-dashoffset="0.0" stroke="black"/>
            </g>
            <g latexdraw:type="dot" id="id1669885569"
                latexdraw:size="10.0" latexdraw:dotShape="o" latexdraw:position="520.0 320.0">
                <path
                    d="M 524.7222222222223 320.0 C 524.7222222222223 322.6080113186454 522.6080113186455 324.72222222222223 520.0 324.72222222222223 C 517.3919886813546 324.72222222222223 515.2777777777778 322.6080113186454 515.2777777777778 320.0 C 515.2777777777778 317.3919886813546 517.3919886813546 315.27777777777777 520.0 315.27777777777777 C 522.6080113186455 315.27777777777777 524.7222222222223 317.3919886813546 524.7222222222223 320.0 z "
                    fill="white" stroke-linecap="square"
                    stroke-linejoin="butt" stroke-width="0.625"
                    stroke-miterlimit="10.0" stroke-dashoffset="0.0" stroke="black"/>
            </g>
            <g latexdraw:type="dot" id="id947566483"
                latexdraw:size="10.0" latexdraw:dotShape="o" latexdraw:position="560.0 320.0">
                <path
                    d="M 564.7222222222223 320.0 C 564.7222222222223 322.6080113186454 562.6080113186455 324.72222222222223 560.0 324.72222222222223 C 557.3919886813546 324.72222222222223 555.2777777777778 322.6080113186454 555.2777777777778 320.0 C 555.2777777777778 317.3919886813546 557.3919886813546 315.27777777777777 560.0 315.27777777777777 C 562.6080113186455 315.27777777777777 564.7222222222223 317.3919886813546 564.7222222222223 320.0 z "
                    fill="white" stroke-linecap="square"
                    stroke-linejoin="butt" stroke-width="0.625"
                    stroke-miterlimit="10.0" stroke-dashoffset="0.0" stroke="black"/>
            </g>
            <g latexdraw:type="dot" id="id73446453"
                latexdraw:size="10.0" latexdraw:dotShape="o" latexdraw:position="360.0 360.0">
                <path
                    d="M 364.72222222222223 360.0 C 364.72222222222223 362.6080113186454 362.6080113186454 364.72222222222223 360.0 364.72222222222223 C 357.3919886813546 364.72222222222223 355.27777777777777 362.6080113186454 355.27777777777777 360.0 C 355.27777777777777 357.3919886813546 357.3919886813546 355.27777777777777 360.0 355.27777777777777 C 362.6080113186454 355.27777777777777 364.72222222222223 357.3919886813546 364.72222222222223 360.0 z "
                    fill="white" stroke-linecap="square"
                    stroke-linejoin="butt" stroke-width="0.625"
                    stroke-miterlimit="10.0" stroke-dashoffset="0.0" stroke="black"/>
            </g>
            <g latexdraw:type="dot" id="id239488995"
                latexdraw:size="10.0" latexdraw:dotShape="o" latexdraw:position="400.0 360.0">
                <path
                    d="M 404.72222222222223 360.0 C 404.72222222222223 362.6080113186454 402.6080113186454 364.72222222222223 400.0 364.72222222222223 C 397.3919886813546 364.72222222222223 395.27777777777777 362.6080113186454 395.27777777777777 360.0 C 395.27777777777777 357.3919886813546 397.3919886813546 355.27777777777777 400.0 355.27777777777777 C 402.6080113186454 355.27777777777777 404.72222222222223 357.3919886813546 404.72222222222223 360.0 z "
                    fill="white" stroke-linecap="square"
                    stroke-linejoin="butt" stroke-width="0.625"
                    stroke-miterlimit="10.0" stroke-dashoffset="0.0" stroke="black"/>
            </g>
            <g latexdraw:type="dot" id="id781894860"
                latexdraw:size="10.0" latexdraw:dotShape="o" latexdraw:position="440.0 360.0">
                <path
                    d="M 444.72222222222223 360.0 C 444.72222222222223 362.6080113186454 442.6080113186454 364.72222222222223 440.0 364.72222222222223 C 437.3919886813546 364.72222222222223 435.27777777777777 362.6080113186454 435.27777777777777 360.0 C 435.27777777777777 357.3919886813546 437.3919886813546 355.27777777777777 440.0 355.27777777777777 C 442.6080113186454 355.27777777777777 444.72222222222223 357.3919886813546 444.72222222222223 360.0 z "
                    fill="white" stroke-linecap="square"
                    stroke-linejoin="butt" stroke-width="0.625"
                    stroke-miterlimit="10.0" stroke-dashoffset="0.0" stroke="black"/>
            </g>
            <g latexdraw:type="dot" id="id1127299235"
                latexdraw:size="10.0" latexdraw:dotShape="o" latexdraw:position="480.0 360.0">
                <path
                    d="M 484.72222222222223 360.0 C 484.72222222222223 362.6080113186454 482.6080113186454 364.72222222222223 480.0 364.72222222222223 C 477.3919886813546 364.72222222222223 475.27777777777777 362.6080113186454 475.27777777777777 360.0 C 475.27777777777777 357.3919886813546 477.3919886813546 355.27777777777777 480.0 355.27777777777777 C 482.6080113186454 355.27777777777777 484.72222222222223 357.3919886813546 484.72222222222223 360.0 z "
                    fill="white" stroke-linecap="square"
                    stroke-linejoin="butt" stroke-width="0.625"
                    stroke-miterlimit="10.0" stroke-dashoffset="0.0" stroke="black"/>
            </g>
            <g latexdraw:type="dot" id="id1114766828"
                latexdraw:size="10.0" latexdraw:dotShape="o" latexdraw:position="520.0 360.0">
                <path
                    d="M 524.7222222222223 360.0 C 524.7222222222223 362.6080113186454 522.6080113186455 364.72222222222223 520.0 364.72222222222223 C 517.3919886813546 364.72222222222223 515.2777777777778 362.6080113186454 515.2777777777778 360.0 C 515.2777777777778 357.3919886813546 517.3919886813546 355.27777777777777 520.0 355.27777777777777 C 522.6080113186455 355.27777777777777 524.7222222222223 357.3919886813546 524.7222222222223 360.0 z "
                    fill="white" stroke-linecap="square"
                    stroke-linejoin="butt" stroke-width="0.625"
                    stroke-miterlimit="10.0" stroke-dashoffset="0.0" stroke="black"/>
            </g>
            <g latexdraw:type="dot" id="id2129959702"
                latexdraw:size="10.0" latexdraw:dotShape="o" latexdraw:position="560.0 360.0">
                <path
                    d="M 564.7222222222223 360.0 C 564.7222222222223 362.6080113186454 562.6080113186455 364.72222222222223 560.0 364.72222222222223 C 557.3919886813546 364.72222222222223 555.2777777777778 362.6080113186454 555.2777777777778 360.0 C 555.2777777777778 357.3919886813546 557.3919886813546 355.27777777777777 560.0 355.27777777777777 C 562.6080113186455 355.27777777777777 564.7222222222223 357.3919886813546 564.7222222222223 360.0 z "
                    fill="white" stroke-linecap="square"
                    stroke-linejoin="butt" stroke-width="0.625"
                    stroke-miterlimit="10.0" stroke-dashoffset="0.0" stroke="black"/>
            </g>
            <g latexdraw:type="dot" id="id103849120"
                latexdraw:size="10.0" latexdraw:dotShape="*" latexdraw:position="460.0 300.0">
                <path
                    d="M 464.6153846153846 300.0 C 464.6153846153846 302.54900653768055 462.54900653768055 304.6153846153846 460.0 304.6153846153846 C 457.4509934623194 304.6153846153846 455.38461538461536 302.54900653768055 455.38461538461536 300.0 C 455.38461538461536 297.4509934623194 457.4509934623194 295.38461538461536 460.0 295.38461538461536 C 462.54900653768055 295.38461538461536 464.6153846153846 297.4509934623194 464.6153846153846 300.0 z "
                    fill="black" stroke-linecap="square"
                    stroke-linejoin="butt" stroke-width="0.625"
                    stroke-miterlimit="10.0" stroke-dashoffset="0.0" stroke="black"/>
            </g>
            <g latexdraw:type="dot" id="id1284397285"
                latexdraw:size="10.0" latexdraw:dotShape="*" latexdraw:position="500.0 300.0">
                <path
                    d="M 504.6153846153846 300.0 C 504.6153846153846 302.54900653768055 502.54900653768055 304.6153846153846 500.0 304.6153846153846 C 497.4509934623194 304.6153846153846 495.38461538461536 302.54900653768055 495.38461538461536 300.0 C 495.38461538461536 297.4509934623194 497.4509934623194 295.38461538461536 500.0 295.38461538461536 C 502.54900653768055 295.38461538461536 504.6153846153846 297.4509934623194 504.6153846153846 300.0 z "
                    fill="black" stroke-linecap="square"
                    stroke-linejoin="butt" stroke-width="0.625"
                    stroke-miterlimit="10.0" stroke-dashoffset="0.0" stroke="black"/>
            </g>
            <g latexdraw:type="dot" id="id31277573"
                latexdraw:size="10.0" latexdraw:dotShape="*" latexdraw:position="540.0 300.0">
                <path
                    d="M 544.6153846153846 300.0 C 544.6153846153846 302.54900653768055 542.5490065376806 304.6153846153846 540.0 304.6153846153846 C 537.4509934623194 304.6153846153846 535.3846153846154 302.54900653768055 535.3846153846154 300.0 C 535.3846153846154 297.4509934623194 537.4509934623194 295.38461538461536 540.0 295.38461538461536 C 542.5490065376806 295.38461538461536 544.6153846153846 297.4509934623194 544.6153846153846 300.0 z "
                    fill="black" stroke-linecap="square"
                    stroke-linejoin="butt" stroke-width="0.625"
                    stroke-miterlimit="10.0" stroke-dashoffset="0.0" stroke="black"/>
            </g>
            <g latexdraw:type="dot" id="id1537950979"
                latexdraw:size="10.0" latexdraw:dotShape="*" latexdraw:position="420.0 300.0">
                <path
                    d="M 424.6153846153846 300.0 C 424.6153846153846 302.54900653768055 422.54900653768055 304.6153846153846 420.0 304.6153846153846 C 417.4509934623194 304.6153846153846 415.38461538461536 302.54900653768055 415.38461538461536 300.0 C 415.38461538461536 297.4509934623194 417.4509934623194 295.38461538461536 420.0 295.38461538461536 C 422.54900653768055 295.38461538461536 424.6153846153846 297.4509934623194 424.6153846153846 300.0 z "
                    fill="black" stroke-linecap="square"
                    stroke-linejoin="butt" stroke-width="0.625"
                    stroke-miterlimit="10.0" stroke-dashoffset="0.0" stroke="black"/>
            </g>
            <g latexdraw:type="dot" id="id1501300554"
                latexdraw:size="10.0" latexdraw:dotShape="*" latexdraw:position="380.0 300.0">
                <path
                    d="M 384.6153846153846 300.0 C 384.6153846153846 302.54900653768055 382.54900653768055 304.6153846153846 380.0 304.6153846153846 C 377.4509934623194 304.6153846153846 375.38461538461536 302.54900653768055 375.38461538461536 300.0 C 375.38461538461536 297.4509934623194 377.4509934623194 295.38461538461536 380.0 295.38461538461536 C 382.54900653768055 295.38461538461536 384.6153846153846 297.4509934623194 384.6153846153846 300.0 z "
                    fill="black" stroke-linecap="square"
                    stroke-linejoin="butt" stroke-width="0.625"
                    stroke-miterlimit="10.0" stroke-dashoffset="0.0" stroke="black"/>
            </g>
            <g latexdraw:type="dot" id="id1737176560"
                latexdraw:size="10.0" latexdraw:dotShape="*" latexdraw:position="380.0 260.0">
                <path
                    d="M 384.6153846153846 260.0 C 384.6153846153846 262.5490065376806 382.54900653768055 264.61538461538464 380.0 264.61538461538464 C 377.4509934623194 264.61538461538464 375.38461538461536 262.5490065376806 375.38461538461536 260.0 C 375.38461538461536 257.4509934623194 377.4509934623194 255.3846153846154 380.0 255.3846153846154 C 382.54900653768055 255.3846153846154 384.6153846153846 257.4509934623194 384.6153846153846 260.0 z "
                    fill="black" stroke-linecap="square"
                    stroke-linejoin="butt" stroke-width="0.625"
                    stroke-miterlimit="10.0" stroke-dashoffset="0.0" stroke="black"/>
            </g>
            <g latexdraw:type="dot" id="id212700782"
                latexdraw:size="10.0" latexdraw:dotShape="*" latexdraw:position="420.0 260.0">
                <path
                    d="M 424.6153846153846 260.0 C 424.6153846153846 262.5490065376806 422.54900653768055 264.61538461538464 420.0 264.61538461538464 C 417.4509934623194 264.61538461538464 415.38461538461536 262.5490065376806 415.38461538461536 260.0 C 415.38461538461536 257.4509934623194 417.4509934623194 255.3846153846154 420.0 255.3846153846154 C 422.54900653768055 255.3846153846154 424.6153846153846 257.4509934623194 424.6153846153846 260.0 z "
                    fill="black" stroke-linecap="square"
                    stroke-linejoin="butt" stroke-width="0.625"
                    stroke-miterlimit="10.0" stroke-dashoffset="0.0" stroke="black"/>
            </g>
            <g latexdraw:type="dot" id="id221204901"
                latexdraw:size="10.0" latexdraw:dotShape="*" latexdraw:position="460.0 260.0">
                <path
                    d="M 464.6153846153846 260.0 C 464.6153846153846 262.5490065376806 462.54900653768055 264.61538461538464 460.0 264.61538461538464 C 457.4509934623194 264.61538461538464 455.38461538461536 262.5490065376806 455.38461538461536 260.0 C 455.38461538461536 257.4509934623194 457.4509934623194 255.3846153846154 460.0 255.3846153846154 C 462.54900653768055 255.3846153846154 464.6153846153846 257.4509934623194 464.6153846153846 260.0 z "
                    fill="black" stroke-linecap="square"
                    stroke-linejoin="butt" stroke-width="0.625"
                    stroke-miterlimit="10.0" stroke-dashoffset="0.0" stroke="black"/>
            </g>
            <g latexdraw:type="dot" id="id886063389"
                latexdraw:size="10.0" latexdraw:dotShape="*" latexdraw:position="500.0 260.0">
                <path
                    d="M 504.6153846153846 260.0 C 504.6153846153846 262.5490065376806 502.54900653768055 264.61538461538464 500.0 264.61538461538464 C 497.4509934623194 264.61538461538464 495.38461538461536 262.5490065376806 495.38461538461536 260.0 C 495.38461538461536 257.4509934623194 497.4509934623194 255.3846153846154 500.0 255.3846153846154 C 502.54900653768055 255.3846153846154 504.6153846153846 257.4509934623194 504.6153846153846 260.0 z "
                    fill="black" stroke-linecap="square"
                    stroke-linejoin="butt" stroke-width="0.625"
                    stroke-miterlimit="10.0" stroke-dashoffset="0.0" stroke="black"/>
            </g>
            <g latexdraw:type="dot" id="id172672706"
                latexdraw:size="10.0" latexdraw:dotShape="*" latexdraw:position="540.0 260.0">
                <path
                    d="M 544.6153846153846 260.0 C 544.6153846153846 262.5490065376806 542.5490065376806 264.61538461538464 540.0 264.61538461538464 C 537.4509934623194 264.61538461538464 535.3846153846154 262.5490065376806 535.3846153846154 260.0 C 535.3846153846154 257.4509934623194 537.4509934623194 255.3846153846154 540.0 255.3846153846154 C 542.5490065376806 255.3846153846154 544.6153846153846 257.4509934623194 544.6153846153846 260.0 z "
                    fill="black" stroke-linecap="square"
                    stroke-linejoin="butt" stroke-width="0.625"
                    stroke-miterlimit="10.0" stroke-dashoffset="0.0" stroke="black"/>
            </g>
            <g latexdraw:type="dot" id="id1794434843"
                latexdraw:size="10.0" latexdraw:dotShape="*" latexdraw:position="540.0 340.0">
                <path
                    d="M 544.6153846153846 340.0 C 544.6153846153846 342.54900653768055 542.5490065376806 344.6153846153846 540.0 344.6153846153846 C 537.4509934623194 344.6153846153846 535.3846153846154 342.54900653768055 535.3846153846154 340.0 C 535.3846153846154 337.4509934623194 537.4509934623194 335.38461538461536 540.0 335.38461538461536 C 542.5490065376806 335.38461538461536 544.6153846153846 337.4509934623194 544.6153846153846 340.0 z "
                    fill="black" stroke-linecap="square"
                    stroke-linejoin="butt" stroke-width="0.625"
                    stroke-miterlimit="10.0" stroke-dashoffset="0.0" stroke="black"/>
            </g>
            <g latexdraw:type="dot" id="id488714649"
                latexdraw:size="10.0" latexdraw:dotShape="*" latexdraw:position="500.0 340.0">
                <path
                    d="M 504.6153846153846 340.0 C 504.6153846153846 342.54900653768055 502.54900653768055 344.6153846153846 500.0 344.6153846153846 C 497.4509934623194 344.6153846153846 495.38461538461536 342.54900653768055 495.38461538461536 340.0 C 495.38461538461536 337.4509934623194 497.4509934623194 335.38461538461536 500.0 335.38461538461536 C 502.54900653768055 335.38461538461536 504.6153846153846 337.4509934623194 504.6153846153846 340.0 z "
                    fill="black" stroke-linecap="square"
                    stroke-linejoin="butt" stroke-width="0.625"
                    stroke-miterlimit="10.0" stroke-dashoffset="0.0" stroke="black"/>
            </g>
            <g latexdraw:type="dot" id="id735003529"
                latexdraw:size="10.0" latexdraw:dotShape="*" latexdraw:position="460.0 340.0">
                <path
                    d="M 464.6153846153846 340.0 C 464.6153846153846 342.54900653768055 462.54900653768055 344.6153846153846 460.0 344.6153846153846 C 457.4509934623194 344.6153846153846 455.38461538461536 342.54900653768055 455.38461538461536 340.0 C 455.38461538461536 337.4509934623194 457.4509934623194 335.38461538461536 460.0 335.38461538461536 C 462.54900653768055 335.38461538461536 464.6153846153846 337.4509934623194 464.6153846153846 340.0 z "
                    fill="black" stroke-linecap="square"
                    stroke-linejoin="butt" stroke-width="0.625"
                    stroke-miterlimit="10.0" stroke-dashoffset="0.0" stroke="black"/>
            </g>
            <g latexdraw:type="dot" id="id2012212452"
                latexdraw:size="10.0" latexdraw:dotShape="*" latexdraw:position="420.0 340.0">
                <path
                    d="M 424.6153846153846 340.0 C 424.6153846153846 342.54900653768055 422.54900653768055 344.6153846153846 420.0 344.6153846153846 C 417.4509934623194 344.6153846153846 415.38461538461536 342.54900653768055 415.38461538461536 340.0 C 415.38461538461536 337.4509934623194 417.4509934623194 335.38461538461536 420.0 335.38461538461536 C 422.54900653768055 335.38461538461536 424.6153846153846 337.4509934623194 424.6153846153846 340.0 z "
                    fill="black" stroke-linecap="square"
                    stroke-linejoin="butt" stroke-width="0.625"
                    stroke-miterlimit="10.0" stroke-dashoffset="0.0" stroke="black"/>
            </g>
            <g latexdraw:type="dot" id="id988680509"
                latexdraw:size="10.0" latexdraw:dotShape="*" latexdraw:position="380.0 340.0">
                <path
                    d="M 384.6153846153846 340.0 C 384.6153846153846 342.54900653768055 382.54900653768055 344.6153846153846 380.0 344.6153846153846 C 377.4509934623194 344.6153846153846 375.38461538461536 342.54900653768055 375.38461538461536 340.0 C 375.38461538461536 337.4509934623194 377.4509934623194 335.38461538461536 380.0 335.38461538461536 C 382.54900653768055 335.38461538461536 384.6153846153846 337.4509934623194 384.6153846153846 340.0 z "
                    fill="black" stroke-linecap="square"
                    stroke-linejoin="butt" stroke-width="0.625"
                    stroke-miterlimit="10.0" stroke-dashoffset="0.0" stroke="black"/>
            </g>
            <g latexdraw:type="joinedLines" id="id777474560">
                <polyline points="460.0,300.0 480.0,280.0 "
                    stroke-width="1.0" stroke="black"
                    latexdraw:rotationAngle="0.0" marker-end="url(#arrow1-777474560)"/>
            </g>
            <g latexdraw:type="joinedLines" id="id2144706376">
                <polyline points="460.0,300.0 440.0,280.0 "
                    stroke-width="1.0" stroke="black"
                    latexdraw:rotationAngle="0.0" marker-end="url(#arrow1-2144706376)"/>
            </g>
            <g latexdraw:type="joinedLines" id="id2002109594">
                <polyline points="460.0,300.0 440.0,320.0 "
                    stroke-width="1.0" stroke="black"
                    latexdraw:rotationAngle="0.0" marker-end="url(#arrow1-2002109594)"/>
            </g>
            <g latexdraw:type="joinedLines" id="id1039680692">
                <polyline points="460.0,300.0 480.0,320.0 "
                    stroke-width="1.0" stroke="black"
                    latexdraw:rotationAngle="0.0" marker-end="url(#arrow1-1039680692)"/>
            </g>
        </g>
    </g>
    <defs>
        <marker overflow="visible" orient="auto" id="arrow1-777474560">
            <path
                d="M 0.0 0.0 L -8.399999999999999 3.0 L -8.399999999999999 0.0 L -8.399999999999999 -3.0 z "
                latexdraw:arrSizeNum="3.0" fill="black"/>
        </marker>
        <marker overflow="visible" orient="auto" id="arrow1-2144706376">
            <path
                d="M 0.0 0.0 L -8.399999999999999 3.0 L -8.399999999999999 0.0 L -8.399999999999999 -3.0 z "
                latexdraw:arrSizeNum="3.0" fill="black"/>
        </marker>
        <marker overflow="visible" orient="auto" id="arrow1-2002109594">
            <path
                d="M 0.0 0.0 L -8.399999999999999 3.0 L -8.399999999999999 0.0 L -8.399999999999999 -3.0 z "
                latexdraw:arrSizeNum="3.0" fill="black"/>
        </marker>
        <marker overflow="visible" orient="auto" id="arrow1-1039680692">
            <path
                d="M 0.0 0.0 L -8.399999999999999 3.0 L -8.399999999999999 0.0 L -8.399999999999999 -3.0 z "
                latexdraw:arrSizeNum="3.0" fill="black"/>
        </marker>
    </defs>
    <metadata>
        <latexdraw:metadata>
            <latexdraw:latexIncludes/>
            <latexdraw:displayXScale>true</latexdraw:displayXScale>
            <latexdraw:displayYScale>true</latexdraw:displayYScale>
            <latexdraw:unit>CM</latexdraw:unit>
            <latexdraw:zoom>1.0</latexdraw:zoom>
            <latexdraw:magneticGridStyle>CUSTOMISED</latexdraw:magneticGridStyle>
            <latexdraw:gridGap>20</latexdraw:gridGap>
            <latexdraw:magneticGrid>true</latexdraw:magneticGrid>
            <latexdraw:version>3.3.4</latexdraw:version>
            <latexdraw:size>
                <latexdraw:width>1554</latexdraw:width>
                <latexdraw:height>907</latexdraw:height>
            </latexdraw:size>
            <latexdraw:position>
                <latexdraw:x>54.0</latexdraw:x>
                <latexdraw:y>0.0</latexdraw:y>
            </latexdraw:position>
        </latexdraw:metadata>
    </metadata>
</svg>
